<?xml version="1.0" encoding="UTF-8"?>
<svg version="1.1" xmlns="http://www.w3.org/2000/svg" width="307" height="306">
<path d="M0 0 C1.27133789 0.61004883 1.27133789 0.61004883 2.56835938 1.23242188 C8.53953707 4.10743336 14.46646817 7.06476746 20.3828125 10.05078125 C25.65016648 12.68445824 30.98616069 15.17648515 36.31640625 17.6796875 C37.83005728 18.39154036 39.3415273 19.10805262 40.85058594 19.82958984 C42.3494874 20.53801104 43.85852711 21.22529897 45.37597656 21.89306641 C46.10010742 22.2235498 46.82423828 22.5540332 47.5703125 22.89453125 C48.21887207 23.18046143 48.86743164 23.4663916 49.53564453 23.76098633 C51.0625 24.875 51.0625 24.875 51.80419922 26.84643555 C52.20108001 29.96333774 51.76602871 31.18866627 50.0625 33.875 C46.21327289 36.5654907 42.03726278 38.46066875 37.7265625 40.29296875 C33.95031572 41.92343777 30.29255535 43.7050206 26.625 45.5625 C25.93978271 45.90700195 25.25456543 46.25150391 24.54858398 46.60644531 C21.66754395 48.05500926 18.78891377 49.50833243 15.91015625 50.96142578 C-5.72839927 61.875 -5.72839927 61.875 -8.9375 61.875 C-8.9375 70.125 -8.9375 78.375 -8.9375 86.875 C-7.2875 87.205 -5.6375 87.535 -3.9375 87.875 C-1.91796875 88.99609375 -1.91796875 88.99609375 -0.125 90.3125 C0.47957031 90.74433594 1.08414063 91.17617187 1.70703125 91.62109375 C2.15433594 92.03488281 2.60164062 92.44867188 3.0625 92.875 C3.0625 93.535 3.0625 94.195 3.0625 94.875 C3.660625 95.060625 4.25875 95.24625 4.875 95.4375 C8.08783927 97.54879438 9.06075592 100.30299151 10.0625 103.875 C11.14429052 110.17851016 11.16537059 116.49702317 11.0625 122.875 C11.64 123.13539063 12.2175 123.39578125 12.8125 123.6640625 C15.21939843 124.95944186 17.02764546 126.42975902 19.0625 128.25 C19.76117188 128.86617187 20.45984375 129.48234375 21.1796875 130.1171875 C23.0625 131.875 23.0625 131.875 25.1875 134.375 C26.115625 135.1175 26.115625 135.1175 27.0625 135.875 C29.06941347 135.58619307 31.06867065 135.24345034 33.0625 134.875 C40.97745209 134.26548774 48.37776695 133.7042066 55.1953125 138.2578125 C61.77425867 143.95589559 64.67432936 150.06168403 65.375 158.75 C65.13649124 166.00347217 62.71177137 172.10538273 57.71484375 177.37109375 C51.75004212 182.80005032 45.99591601 184.00814824 38.0625 183.875 C34.20397316 183.34909708 30.55773115 182.62261557 27.0625 180.875 C27.0625 180.215 27.0625 179.555 27.0625 178.875 C26.485 178.7925 25.9075 178.71 25.3125 178.625 C20.83947781 177.1339926 18.86660289 173.85561097 16.8125 169.8125 C14.20229204 163.60941755 14.09049535 157.03401512 16.0625 150.625 C16.36290865 147.82979834 16.36290865 147.82979834 14.5234375 146.1015625 C12.43688459 144.24945374 10.29701154 142.54478954 8.0625 140.875 C6.37205344 139.57194744 4.69378444 138.25139625 3.0625 136.875 C3.0625 136.215 3.0625 135.555 3.0625 134.875 C-0.6008655 135.24133655 -3.36934917 135.53681498 -6.5625 137.4375 C-12.73340417 140.06584807 -19.60801154 140.04704939 -25.93359375 137.8203125 C-29.35945758 136.13970005 -32.23124374 134.58125626 -34.9375 131.875 C-39.17175309 131.99953686 -42.03684303 134.06457144 -45.46484375 136.30078125 C-50.82138666 139.71102895 -56.40926592 142.75273698 -61.9375 145.875 C-62.61506348 146.25769043 -63.29262695 146.64038086 -63.99072266 147.03466797 C-76.60303464 154.15209922 -76.60303464 154.15209922 -82.75 157.5 C-87.07216301 159.87636166 -91.16215564 162.58510325 -95.26171875 165.32421875 C-98.08545419 166.96074863 -100.81615335 167.94727911 -103.9375 168.875 C-103.958125 170.174375 -103.97875 171.47375 -104 172.8125 C-104.8073749 180.12500976 -109.48959578 184.87671084 -115 189.375 C-121.66092522 192.77632352 -129.49582034 192.62069726 -136.6875 191.0625 C-143.63579016 188.52370167 -148.54020508 184.63592661 -152.11328125 178.0546875 C-154.77750636 171.00901162 -154.99386943 161.82953551 -151.9375 154.875 C-148.54423036 149.86546245 -144.35535954 145.64156657 -138.9375 142.875 C-135.5625 142.625 -135.5625 142.625 -132.9375 142.875 C-132.999375 141.84375 -133.06125 140.8125 -133.125 139.75 C-133.125 134.61674159 -131.92043945 129.86436634 -130.7890625 124.87890625 C-129.67720365 119.83036431 -128.91694277 114.73416619 -128.13793945 109.62573242 C-127.42798194 104.98037122 -126.68574595 100.34324444 -125.89453125 95.7109375 C-125.715271 94.65890137 -125.53601074 93.60686523 -125.35131836 92.52294922 C-125.00248631 90.48496077 -124.65063199 88.44748636 -124.29516602 86.41064453 C-123.47314669 81.58491234 -122.73051748 76.75147522 -122.1484375 71.890625 C-122.04063965 71.01696289 -121.9328418 70.14330078 -121.82177734 69.24316406 C-121.9997861 65.60036891 -123.87188224 63.93492741 -126.3671875 61.45703125 C-130.86442341 56.92623388 -131.17157862 52.10920347 -131.375 46 C-131.15799203 37.1026731 -128.45662962 31.27032378 -122.890625 24.48046875 C-116.93979664 19.58888784 -111.09266228 18.14720094 -103.5 18.25 C-102.66251221 18.25765381 -101.82502441 18.26530762 -100.9621582 18.27319336 C-94.22044693 18.51601341 -89.72277461 19.92732919 -84.9375 24.875 C-84.05191406 25.77412109 -84.05191406 25.77412109 -83.1484375 26.69140625 C-80.03076865 30.11197658 -77.03925475 33.45720783 -76.83740234 38.25341797 C-76.89879395 39.11596191 -76.96018555 39.97850586 -77.0234375 40.8671875 C-77.06597656 41.81980469 -77.10851562 42.77242187 -77.15234375 43.75390625 C-77.25877253 45.74490323 -77.38884973 47.73478216 -77.54296875 49.72265625 C-77.85665036 55.26670308 -77.85665036 55.26670308 -75.12988281 59.83691406 C-72.95756465 61.46871232 -72.95756465 61.46871232 -70.67431641 62.75830078 C-70.10116699 63.12681152 -69.52801758 63.49532227 -68.9375 63.875 C-68.9375 64.535 -68.9375 65.195 -68.9375 65.875 C-68.27878906 66.06964844 -67.62007813 66.26429687 -66.94140625 66.46484375 C-62.68176494 68.46449331 -59.43923195 71.39768918 -55.875 74.4375 C-49.05659778 80.16091711 -42.13339288 85.63406068 -34.9375 90.875 C-34.40640625 90.58625 -33.8753125 90.2975 -33.328125 90 C-32.62171875 89.62875 -31.9153125 89.2575 -31.1875 88.875 C-30.49140625 88.50375 -29.7953125 88.1325 -29.078125 87.75 C-26.9375 86.875 -26.9375 86.875 -22.9375 86.875 C-23.0089624 85.60261475 -23.0804248 84.33022949 -23.15405273 83.01928711 C-24.02611719 66.21798154 -24.05870774 49.44488045 -24.00616455 32.62774658 C-23.99572655 28.91915478 -23.99132422 25.21055554 -23.98632812 21.50195312 C-23.97576994 14.29294931 -23.95882391 7.0839809 -23.9375 -0.125 C-14.19023391 -5.82623111 -9.96676153 -4.84462315 0 0 Z M-98.3125 70.625 C-99.41658203 70.93824219 -99.41658203 70.93824219 -100.54296875 71.2578125 C-102.34797976 71.77352993 -104.14382723 72.3211343 -105.9375 72.875 C-107.77784052 81.60682841 -109.37690592 90.34137755 -110.73706055 99.15991211 C-111.79755713 106.03146197 -112.91919983 112.89175308 -114.0625 119.75 C-114.23322021 120.77859131 -114.40394043 121.80718262 -114.57983398 122.86694336 C-114.74169189 123.83639893 -114.9035498 124.80585449 -115.0703125 125.8046875 C-115.21355957 126.66304199 -115.35680664 127.52139648 -115.50439453 128.40576172 C-115.80490186 130.11902615 -116.1292965 131.82820495 -116.47241211 133.53344727 C-117.29434187 137.6715724 -117.69563174 141.70173277 -116.9375 145.875 C-114.27083333 148.375 -114.27083333 148.375 -110.9375 149.875 C-109.57308841 151.17651318 -108.23369834 152.50553827 -106.9375 153.875 C-106.01710938 153.318125 -105.09671875 152.76125 -104.1484375 152.1875 C-96.5021732 147.57388399 -88.80879427 143.06632587 -81.0390625 138.6640625 C-78.4408352 137.16533693 -75.9001534 135.61723308 -73.375 134 C-70.6595901 132.26564142 -68.00016703 130.92779179 -64.9375 129.875 C-64.9375 129.215 -64.9375 128.555 -64.9375 127.875 C-64.15375 127.66875 -63.37 127.4625 -62.5625 127.25 C-57.63736697 125.38184609 -53.39556014 122.65157311 -48.9375 119.875 C-48.03 119.43027344 -47.1225 118.98554688 -46.1875 118.52734375 C-43.70732733 117.0535514 -43.70732733 117.0535514 -43.16015625 114.28125 C-43.10730469 113.3221875 -43.05445313 112.363125 -43 111.375 C-42.92910156 110.4159375 -42.85820312 109.456875 -42.78515625 108.46875 C-42.73252905 105.63541695 -42.73252905 105.63541695 -44.9375 102.875 C-46.4225 102.38 -46.4225 102.38 -47.9375 101.875 C-48.9375 100.875 -49.9375 99.875 -50.9375 98.875 C-51.5975 98.875 -52.2575 98.875 -52.9375 98.875 C-52.9375 98.215 -52.9375 97.555 -52.9375 96.875 C-54.70244494 95.4793269 -56.52558217 94.15663478 -58.375 92.875 C-63.8337818 89.0824364 -63.8337818 89.0824364 -64.9375 86.875 C-65.9275 86.545 -66.9175 86.215 -67.9375 85.875 C-68.9375 84.875 -69.9375 83.875 -70.9375 82.875 C-71.5975 82.875 -72.2575 82.875 -72.9375 82.875 C-72.9375 82.215 -72.9375 81.555 -72.9375 80.875 C-74.5919188 79.51496177 -76.31346045 78.23598795 -78.0625 77 C-79.01382813 76.32195312 -79.96515625 75.64390625 -80.9453125 74.9453125 C-81.93273437 74.26210937 -82.92015625 73.57890625 -83.9375 72.875 C-85.34515625 71.70324219 -85.34515625 71.70324219 -86.78125 70.5078125 C-91.18348611 68.23041808 -93.74857089 69.18897167 -98.3125 70.625 Z " fill="#4032AF" transform="translate(197.9375,49.125)"/>
<path d="M0 0 C1.49896481 0.75206683 2.99895179 1.5021001 4.5 2.25 C5.655 2.8275 6.81 3.405 8 4 C8 4.66 8 5.32 8 6 C8.57234375 6.11472656 9.1446875 6.22945312 9.734375 6.34765625 C12.21471656 7.06182356 14.06368697 8.07307872 16.25 9.4375 C16.95640625 9.86933594 17.6628125 10.30117188 18.390625 10.74609375 C18.92171875 11.15988281 19.4528125 11.57367187 20 12 C20 12.66 20 13.32 20 14 C21.32 14.33 22.64 14.66 24 15 C24 15.66 24 16.32 24 17 C24.556875 17.061875 25.11375 17.12375 25.6875 17.1875 C28.95431211 18.33529885 30.58133131 20.53602484 33 23 C34.89256221 24.67038022 36.78857531 26.33685634 38.6875 28 C66.4476622 52.9966099 79.63369946 90.80252947 81.87426758 127.17260742 C82.74850793 146.83198113 81.04998821 166.24275354 75 185 C74.65324219 186.10859375 74.30648438 187.2171875 73.94921875 188.359375 C70.29331247 198.83520826 64.48295136 208.39656249 59 218 C58.34 218 57.68 218 57 218 C56.7525 218.70511719 56.505 219.41023437 56.25 220.13671875 C54.83896341 223.36887443 53.0749274 225.96328902 51 228.8125 C50.29875 229.78832031 49.5975 230.76414063 48.875 231.76953125 C48.25625 232.50558594 47.6375 233.24164063 47 234 C46.34 234 45.68 234 45 234 C44.9071875 234.8353125 44.9071875 234.8353125 44.8125 235.6875 C43.90792284 238.26206576 42.64241183 239.588418 40.66796875 241.4296875 C37.67203535 244.25021496 34.85384153 247.25478175 31.98828125 250.20703125 C30 252 30 252 28 252 C28 252.66 28 253.32 28 254 C26.03561669 255.69188501 24.07071616 257.26060566 22 258.8125 C21.44699219 259.23853516 20.89398438 259.66457031 20.32421875 260.10351562 C16.04845391 263.35211397 11.60156334 266.2360228 7 269 C6.39285156 269.36536865 5.78570312 269.7307373 5.16015625 270.10717773 C-3.6146939 275.26947869 -12.60238947 279.18769123 -22.25 282.4375 C-23.21873047 282.7672583 -24.18746094 283.0970166 -25.18554688 283.43676758 C-39.10201313 287.93189894 -52.68626078 288.34635944 -67.18237305 288.31567383 C-70.29576775 288.31251697 -73.40820665 288.3360329 -76.52148438 288.36132812 C-95.99932625 288.42308867 -114.30765475 285.65852654 -132 277 C-132.59748047 276.7107666 -133.19496094 276.4215332 -133.81054688 276.12353516 C-148.9969183 268.75454322 -148.9969183 268.75454322 -156 264 C-157.03125 263.319375 -158.0625 262.63875 -159.125 261.9375 C-160.07375 261.298125 -161.0225 260.65875 -162 260 C-163.11375 259.29875 -164.2275 258.5975 -165.375 257.875 C-166.24125 257.25625 -167.1075 256.6375 -168 256 C-168 255.34 -168 254.68 -168 254 C-168.8353125 253.9071875 -168.8353125 253.9071875 -169.6875 253.8125 C-172.96269083 252.66175728 -174.59140789 250.48232452 -177 248 C-177.83917969 247.195625 -178.67835938 246.39125 -179.54296875 245.5625 C-186.45489419 238.86497697 -192.38854378 231.81194081 -198 224 C-198.63252686 223.1339917 -198.63252686 223.1339917 -199.27783203 222.25048828 C-209.00382289 208.83164299 -215.87930343 194.07626016 -220 178 C-220.17515137 177.31969727 -220.35030273 176.63939453 -220.53076172 175.93847656 C-223.13311456 165.64270507 -224.78432113 155.65007369 -225 145 C-225.02046387 144.20722656 -225.04092773 143.41445312 -225.06201172 142.59765625 C-225.9361219 104.62804355 -216.82675061 72.55765412 -194 42 C-193.44957031 41.24203125 -192.89914063 40.4840625 -192.33203125 39.703125 C-189.47437965 35.79497422 -186.51933068 32.34765601 -183 29 C-181.85320827 27.83427539 -180.70744294 26.6675405 -179.5625 25.5 C-171.04390044 17 -171.04390044 17 -168 17 C-167.67 16.01 -167.34 15.02 -167 14 C-166.01 14 -165.02 14 -164 14 C-163.505 12.515 -163.505 12.515 -163 11 C-157.45056558 6.53632449 -151.30025729 3.28154994 -145 0 C-143.86691406 -0.59296875 -142.73382813 -1.1859375 -141.56640625 -1.796875 C-134.5494969 -5.41782038 -127.52811846 -8.5991406 -120 -11 C-119.29246582 -11.23050049 -118.58493164 -11.46100098 -117.85595703 -11.69848633 C-78.55859762 -24.07797438 -36.25933413 -18.80391088 0 0 Z M-118 5 C-119.38869495 5.4596556 -120.78388159 5.90065987 -122.1875 6.3125 C-133.25783501 9.96514861 -142.64781645 16.1787978 -152 23 C-152.57443848 23.41282227 -153.14887695 23.82564453 -153.74072266 24.25097656 C-158.97868648 27.98621283 -158.97868648 27.98621283 -164 32 C-164 32.66 -164 33.32 -164 34 C-164.57234375 34.2475 -165.1446875 34.495 -165.734375 34.75 C-168.35010611 36.19316199 -170.14773456 37.88216222 -172.25 40 C-172.95640625 40.70125 -173.6628125 41.4025 -174.390625 42.125 C-176.21710399 43.84110768 -176.21710399 43.84110768 -176 46 C-176.99 46.33 -177.98 46.66 -179 47 C-203.43187182 75.30910365 -212.20121621 112.05360443 -209.72265625 148.53515625 C-208.007221 169.02644411 -201.26123643 187.78150645 -192 206 C-191.34 206 -190.68 206 -190 206 C-189.731875 206.928125 -189.46375 207.85625 -189.1875 208.8125 C-188.053317 211.85688595 -187.30315842 212.89711622 -185 215 C-184.67 215.99 -184.34 216.98 -184 218 C-182.36496139 219.6977056 -180.69283355 221.35991764 -179 223 C-177.28598161 224.91158438 -175.57790717 226.82851072 -173.875 228.75 C-169.32250405 233.81828823 -164.51406545 238.08402304 -159.1171875 242.2578125 C-157 244 -157 244 -156 246 C-154.34634594 247.02137457 -152.67623498 248.01612294 -151 249 C-150.01386719 249.74636719 -149.02773437 250.49273437 -148.01171875 251.26171875 C-143.30481899 254.64287869 -138.16823706 257.04006349 -132.9375 259.5 C-131.90818359 259.98412354 -130.87886719 260.46824707 -129.81835938 260.96704102 C-96.11779896 276.63758952 -60.49555871 278.15275566 -25.0625 266.9375 C-23.36594495 266.3158426 -21.67706247 265.67247186 -20 265 C-19.22269531 264.69449219 -18.44539062 264.38898438 -17.64453125 264.07421875 C-11.75729449 261.61191491 -6.41115964 258.35957759 -1 255 C3.6916823 252.14509068 3.6916823 252.14509068 6.125 251 C8.02807019 250.10414841 8.02807019 250.10414841 9.32421875 248.66015625 C12.01020031 245.99921881 15.1043001 243.87001667 18.13671875 241.62109375 C18.75160156 241.08613281 19.36648437 240.55117188 20 240 C20 239.34 20 238.68 20 238 C21.32 237.34 22.64 236.68 24 236 C24 235.34 24 234.68 24 234 C25.32 233.34 26.64 232.68 28 232 C28 231.34 28 230.68 28 230 C28.66 230 29.32 230 30 230 C31.3956731 228.23505506 32.71836522 226.41191783 34 224.5625 C37.7925636 219.1037182 37.7925636 219.1037182 40 218 C41.02137457 216.34634594 42.01612294 214.67623498 43 213 C43.763125 211.989375 44.52625 210.97875 45.3125 209.9375 C48.89297948 204.99816385 51.3511709 199.47327118 54 194 C54.72762019 192.6033599 55.45656746 191.20740944 56.1875 189.8125 C57.89932376 186.38885247 59.14253106 182.90913955 60.28125 179.2578125 C60.73845138 177.82160381 61.23469803 176.39682605 61.78125 174.9921875 C72.49980233 146.80239486 67.41454481 107.17496691 55.953125 80.11328125 C49.49938747 65.80396976 41.55485236 50.76488517 29 41 C28.10662218 39.93177148 27.23304786 38.846809 26.375 37.75 C22.05992118 32.55383179 16.45905307 28.9003133 11 25 C10.14921875 24.36707031 9.2984375 23.73414062 8.421875 23.08203125 C3.21598037 19.27836953 -2.11827102 16.25946083 -7.9296875 13.47265625 C-10.99021934 12.00469123 -13.98976991 10.44299192 -17 8.875 C-22.88334299 5.96740192 -28.66026219 3.70658126 -35 2 C-35.66950684 1.81663086 -36.33901367 1.63326172 -37.02880859 1.44433594 C-61.88833295 -5.07239899 -94.27217955 -5.6804058 -118 5 Z " fill="#3F32AF" transform="translate(225,18)"/>
<path d="M0 0 C0.84755859 0.40669922 1.69511719 0.81339844 2.56835938 1.23242188 C8.53953707 4.10743336 14.46646817 7.06476746 20.3828125 10.05078125 C25.65016648 12.68445824 30.98616069 15.17648515 36.31640625 17.6796875 C37.83005728 18.39154036 39.3415273 19.10805262 40.85058594 19.82958984 C42.3494874 20.53801104 43.85852711 21.22529897 45.37597656 21.89306641 C46.10010742 22.2235498 46.82423828 22.5540332 47.5703125 22.89453125 C48.21887207 23.18046143 48.86743164 23.4663916 49.53564453 23.76098633 C51.0625 24.875 51.0625 24.875 51.80419922 26.84643555 C52.20108001 29.96333774 51.76602871 31.18866627 50.0625 33.875 C46.21327289 36.5654907 42.03726278 38.46066875 37.7265625 40.29296875 C33.9502978 41.92344551 30.29266044 43.70520632 26.625 45.5625 C25.93760742 45.90772705 25.25021484 46.2529541 24.54199219 46.60864258 C20.98503487 48.39561329 17.4341065 50.19411795 13.88671875 52 C-13.45921831 65.875 -13.45921831 65.875 -22.9375 65.875 C-24.32175411 63.10649177 -24.05709962 60.87080816 -24.05102539 57.77294922 C-24.05094986 56.49177216 -24.05087433 55.21059509 -24.05079651 53.89059448 C-24.04568948 52.48695843 -24.04047348 51.08332277 -24.03515625 49.6796875 C-24.03329146 48.24765065 -24.03186784 46.81561316 -24.03086853 45.38357544 C-24.02704819 41.61226646 -24.01722202 37.84099593 -24.00616455 34.06970215 C-23.99594005 30.22225464 -23.99136868 26.37480093 -23.98632812 22.52734375 C-23.97559933 14.97654497 -23.95852869 7.42577787 -23.9375 -0.125 C-14.19023391 -5.82623111 -9.96676153 -4.84462315 0 0 Z " fill="#1EB6D8" transform="translate(197.9375,49.125)"/>
<path d="M0 0 C0.33 0 0.66 0 1 0 C1.09498779 1.11221924 1.18997559 2.22443848 1.2878418 3.37036133 C1.65333509 7.59720683 2.0409039 11.82181305 2.43432617 16.04614258 C2.59994789 17.85584329 2.76000562 19.66606402 2.91381836 21.47680664 C4.29294458 37.63549397 7.01637519 53.44440321 13.625 68.375 C13.91117188 69.05820313 14.19734375 69.74140625 14.4921875 70.4453125 C15.73389673 73.35768506 17.05431004 76.08853281 18.7109375 78.7890625 C20 81 20 81 20 84 C20.66 84 21.32 84 22 84 C22.86375896 85.61992165 23.71575854 87.24611861 24.5625 88.875 C25.03816406 89.77992188 25.51382813 90.68484375 26.00390625 91.6171875 C26.33261719 92.40351563 26.66132812 93.18984375 27 94 C26.67 94.66 26.34 95.32 26 96 C13 78.26923077 13 78.26923077 13 73 C11.02 73.495 11.02 73.495 9 74 C8.87625 74.61875 8.7525 75.2375 8.625 75.875 C8 78 8 78 6 80 C6.29299023 81.67422986 6.62690101 83.34178227 7 85 C6.67 85.66 6.34 86.32 6 87 C2.78304053 84.32083011 1.26832418 80.85229853 -0.4375 77.125 C-0.74534424 76.4544458 -1.05318848 75.7838916 -1.37036133 75.09301758 C-8.66090174 58.83866648 -12.58280037 40.77633211 -13 23 C-13.02046387 22.25169922 -13.04092773 21.50339844 -13.06201172 20.73242188 C-13.12047927 18.38405563 -13.15876113 16.03640702 -13.1875 13.6875 C-13.20071289 12.95136475 -13.21392578 12.21522949 -13.22753906 11.45678711 C-13.23011556 9.63627925 -13.12360119 7.81630896 -13 6 C-12.34 5.34 -11.68 4.68 -11 4 C-10.91435791 5.00788574 -10.82871582 6.01577148 -10.74047852 7.05419922 C-10.41879438 10.83762871 -10.09613235 14.6209743 -9.77319336 18.40429688 C-9.63425978 20.03350635 -9.49558208 21.66273767 -9.35717773 23.29199219 C-8.62850767 31.86767603 -7.89066175 40.43927052 -7 49 C-6.34 49 -5.68 49 -5 49 C-4.67 49.99 -4.34 50.98 -4 52 C-1.03 51.505 -1.03 51.505 2 51 C3.47034384 47.08557467 2.48103526 44.1175666 1.5625 40.125 C-1.14902891 27.01502059 -0.25515703 13.31396318 0 0 Z " fill="#3D31AE" transform="translate(13,140)"/>
<path d="M0 0 C1.75390625 0.0546875 1.75390625 0.0546875 4 1 C5.48699169 3.37090921 6.72679439 5.62004059 7.9375 8.125 C8.63038144 9.4953835 9.32696087 10.86390392 10.02734375 12.23046875 C10.52983643 13.21152588 10.52983643 13.21152588 11.04248047 14.21240234 C12.74077826 17.38296237 14.7918157 20.17076387 17 23 C16.67 21.68 16.34 20.36 16 19 C16.99 19.66 17.98 20.32 19 21 C19 21.99 19 22.98 19 24 C19.86625 24.309375 19.86625 24.309375 20.75 24.625 C23.81410544 26.49750888 25.15539968 28.96958519 27 32 C25.68 31.34 24.36 30.68 23 30 C23.61875 30.7425 24.2375 31.485 24.875 32.25 C28.32960894 36.72067039 28.32960894 36.72067039 29 39 C28.25 42.6875 28.25 42.6875 27 46 C26.01 46.495 26.01 46.495 25 47 C26.65 48.98 28.3 50.96 30 53 C21.83215245 49.30034039 16.63298137 41.43338616 11.3125 34.5 C10.76601807 33.78835693 10.21953613 33.07671387 9.65649414 32.34350586 C6.51731103 28.18958909 3.70736527 23.99819662 1.16479492 19.45117188 C0.7804126 18.97228516 0.39603027 18.49339844 0 18 C-0.99 18 -1.98 18 -3 18 C-3.66 16.68 -4.32 15.36 -5 14 C-4.34 13.67 -3.68 13.34 -3 13 C-3.33 10.36 -3.66 7.72 -4 5 C-3.01 5 -2.02 5 -1 5 C-0.67 3.35 -0.34 1.7 0 0 Z " fill="#4033AF" transform="translate(22,212)"/>
<path d="M0 0 C2.7607128 2.44216902 4.76080593 5.05424959 6.75 8.125 C16.10694935 22.95448109 16.10694935 22.95448109 29 34 C27.68 32.35 26.36 30.7 25 29 C25.99 29 26.98 29 28 29 C28 28.0925 28 27.185 28 26.25 C28 23.83333333 28 21.41666667 28 19 C26.7187757 17.23682295 26.7187757 17.23682295 25 15.75 C24.443125 15.22921875 23.88625 14.7084375 23.3125 14.171875 C22.879375 13.78515625 22.44625 13.3984375 22 13 C22.33 12.34 22.66 11.68 23 11 C23.79921875 11.75023437 24.5984375 12.50046875 25.421875 13.2734375 C32.04099137 19.45127944 38.75905492 25.38434145 45.83203125 31.0390625 C46.90517578 32.00972656 46.90517578 32.00972656 48 33 C48 33.66 48 34.32 48 35 C48.66 35 49.32 35 50 35 C50.33 35.99 50.66 36.98 51 38 C47.62496331 36.8141763 45.35277269 35.72426311 43 33 C39.63408134 34.44253657 37.48952921 36.33264727 35 39 C36.32 40.65 37.64 42.3 39 44 C33.02236151 43.16662871 30.23631624 40.05825742 26 36 C24.81857422 34.89591797 24.81857422 34.89591797 23.61328125 33.76953125 C16.96389803 27.37067425 11.41230852 20.43959934 6 13 C5.35289063 12.113125 4.70578125 11.22625 4.0390625 10.3125 C0 4.54782864 0 4.54782864 0 0 Z " fill="#3D30AB" transform="translate(21,229)"/>
<path d="M0 0 C2.55078125 1.609375 2.55078125 1.609375 5.3125 3.75 C5.82248535 4.14268066 6.3324707 4.53536133 6.85791016 4.93994141 C12.63627156 9.42312315 18.28396955 14.07389312 23.9453125 18.703125 C27.84689145 21.88663344 31.78804731 25.01707056 35.75 28.125 C36.32218262 28.57407715 36.89436523 29.0231543 37.48388672 29.48583984 C40.79963815 32.08125182 40.79963815 32.08125182 44.31640625 34.390625 C46.92368943 36.88296994 46.92188314 39.09114087 47.1875 42.625 C47.09068343 48.84062361 47.09068343 48.84062361 44.54248047 51.54931641 C40.39425424 54.74443696 35.85429138 57.07464623 31 59 C30.01 58.505 30.01 58.505 29 58 C31.33839414 54.49240879 32.76708513 54.12307181 36.5625 52.5 C40.82524237 50.33775483 40.82524237 50.33775483 42.98046875 46.26953125 C43.35583809 42.1513488 43.31258341 38.93775022 42 35 C39.98491642 34.26676204 39.98491642 34.26676204 38 34 C38 33.34 38 32.68 38 32 C36.68 31.67 35.36 31.34 34 31 C34 30.34 34 29.68 34 29 C33.42765625 28.731875 32.8553125 28.46375 32.265625 28.1875 C29.92115366 26.95867364 27.87595062 25.57477824 25.75 24 C25.04359375 23.484375 24.3371875 22.96875 23.609375 22.4375 C23.07828125 21.963125 22.5471875 21.48875 22 21 C22 20.34 22 19.68 22 19 C20.68 18.67 19.36 18.34 18 18 C18 17.34 18 16.68 18 16 C16.68 15.67 15.36 15.34 14 15 C14 14.34 14 13.68 14 13 C13.28070313 12.76925781 12.56140625 12.53851563 11.8203125 12.30078125 C8.48205227 10.76111275 6.50501781 8.74293522 3.875 6.1875 C-0.02383709 2.7544152 -0.02383709 2.7544152 -4.94921875 2.078125 C-7.71103656 2.90704712 -10.324702 3.9298808 -13 5 C-16.6875 5.1875 -16.6875 5.1875 -19 5 C-19.03738281 5.59425781 -19.07476562 6.18851562 -19.11328125 6.80078125 C-19.6423618 13.47134587 -21.06622416 19.60272899 -23 26 C-23.33 26 -23.66 26 -24 26 C-22.99323563 9.09695603 -22.99323563 9.09695603 -21 3 C-17.97976933 1.48988467 -14.84638859 1.61310487 -11.5078125 1.37890625 C-8.99380663 1.14579482 -8.99380663 1.14579482 -6.9921875 -0.09765625 C-4.2201237 -1.35323809 -2.86593474 -0.95386633 0 0 Z " fill="#20188F" transform="translate(111,117)"/>
<path d="M0 0 C2.75 1.625 2.75 1.625 3.75 4.625 C3.21632812 4.39683594 2.68265625 4.16867188 2.1328125 3.93359375 C1.38773438 3.64613281 0.64265625 3.35867187 -0.125 3.0625 C-0.84429687 2.77246094 -1.56359375 2.48242188 -2.3046875 2.18359375 C-6.39848838 1.26317938 -6.39848838 1.26317938 -15.25 2.625 C-14.92 24.075 -14.59 45.525 -14.25 67.625 C-15.57 67.295 -16.89 66.965 -18.25 66.625 C-18.25 45.505 -18.25 24.385 -18.25 2.625 C-7.84668508 -3.31975138 -7.84668508 -3.31975138 0 0 Z " fill="#13A4C8" transform="translate(192.25,46.375)"/>
<path d="M0 0 C2.24228292 0.00314554 4.48322206 -0.02034044 6.7253418 -0.0456543 C29.02169176 -0.14363206 48.98772653 6.04670182 69.07495117 15.31567383 C65.47844649 16.51450872 64.70420012 16.0426052 61.26245117 14.69067383 C60.27374023 14.3168457 59.2850293 13.94301758 58.26635742 13.55786133 C56.16586523 12.74028909 54.06934784 11.91241802 51.97729492 11.07348633 C22.91256787 -0.08127185 -8.74459301 0.82925795 -38.64550781 7.97021484 C-40.92504883 8.31567383 -40.92504883 8.31567383 -43.92504883 7.31567383 C-41.34433457 6.51455163 -38.76093034 5.72480826 -36.17504883 4.94067383 C-35.10963867 4.6080957 -35.10963867 4.6080957 -34.02270508 4.26879883 C-22.75813017 0.87945771 -11.70530276 -0.03415575 0 0 Z " fill="#130E82" transform="translate(148.925048828125,13.684326171875)"/>
<path d="M0 0 C-3.3847556 2.87320564 -7.06953716 4.41508949 -11.1875 5.9375 C-11.88222412 6.19619873 -12.57694824 6.45489746 -13.29272461 6.72143555 C-25.60985997 11.15670586 -38.65209469 14.14638165 -51.76953125 14.16796875 C-52.85109749 14.17296135 -52.85109749 14.17296135 -53.95451355 14.17805481 C-55.47137826 14.18308694 -56.9882539 14.18546429 -58.50512695 14.18530273 C-60.79592619 14.18748422 -63.08623909 14.20566565 -65.37695312 14.22460938 C-73.10074927 14.25325917 -80.4917645 14.04349046 -88 12 C-88 11.67 -88 11.34 -88 11 C-86.85337891 11.02618408 -85.70675781 11.05236816 -84.52539062 11.0793457 C-52.91506816 11.8659613 -52.91506816 11.8659613 -22 6 C-21.3184082 5.80293457 -20.63681641 5.60586914 -19.93457031 5.40283203 C-15.78271642 4.18679445 -11.73872058 2.91801851 -7.90625 0.89453125 C-5.24376602 -0.35487209 -2.89789296 -0.13172241 0 0 Z " fill="#21198D" transform="translate(215,280)"/>
<path d="M0 0 C0.33 0.66 0.66 1.32 1 2 C1.66 2 2.32 2 3 2 C13.91873823 25.6379067 17.22996245 58.93613018 10 84 C9.67 84 9.34 84 9 84 C9.01571045 82.86272461 9.0314209 81.72544922 9.04760742 80.55371094 C9.10296851 76.2297305 9.13672519 71.90577933 9.16479492 67.58154297 C9.17964495 65.72960094 9.19993027 63.87769247 9.22631836 62.02587891 C9.48953589 43.04325015 8.20090696 23.05934548 0.87890625 5.27734375 C0 3 0 3 0 0 Z " fill="#1D148B" transform="translate(294,96)"/>
<path d="M0 0 C0 7.92 0 15.84 0 24 C1.65 24.33 3.3 24.66 5 25 C7.01953125 26.0859375 7.01953125 26.0859375 8.8125 27.375 C9.41707031 27.79523438 10.02164063 28.21546875 10.64453125 28.6484375 C11.09183594 29.09445313 11.53914063 29.54046875 12 30 C12 30.99 12 31.98 12 33 C11.34 33 10.68 33 10 33 C10 32.34 10 31.68 10 31 C7.96799031 29.981712 5.93422791 28.96766307 3.89453125 27.96484375 C3.20746094 27.62582031 2.52039063 27.28679687 1.8125 26.9375 C1.11769531 26.59589844 0.42289063 26.25429687 -0.29296875 25.90234375 C-2 25 -2 25 -3 24 C-3.08700342 22.36527118 -3.10701063 20.72685945 -3.09765625 19.08984375 C-3.09443359 18.10048828 -3.09121094 17.11113281 -3.08789062 16.09179688 C-3.07951172 15.05087891 -3.07113281 14.00996094 -3.0625 12.9375 C-3.05798828 11.89271484 -3.05347656 10.84792969 -3.04882812 9.77148438 C-3.03699913 7.1809334 -3.02051689 4.59049441 -3 2 C-3.763125 2.33 -4.52625 2.66 -5.3125 3 C-8 4 -8 4 -11 4 C-11 10.6 -11 17.2 -11 24 C-11.99 24 -12.98 24 -14 24 C-14 17.07 -14 10.14 -14 3 C-3.375 -1.125 -3.375 -1.125 0 0 Z " fill="#2A26A0" transform="translate(189,112)"/>
<path d="M0 0 C0.33 0 0.66 0 1 0 C0.74497962 4.34205749 0.39421865 8.66846176 0 13 C-0.05285156 13.89976562 -0.10570313 14.79953125 -0.16015625 15.7265625 C-0.45218787 18.18620912 -0.74122279 19.86007875 -2 22 C-4.44785989 23.41695116 -6.82977646 24.25547669 -9.5234375 25.109375 C-14.28252697 26.82084566 -17.26294416 30.89441625 -20 35 C-21.99022346 40.97067037 -22.3972181 48.75610902 -19.8828125 54.59375 C-18.55384662 56.67415254 -18.55384662 56.67415254 -17.09375 58.44921875 C-16 60 -16 60 -16 63 C-19.66924039 61.8206013 -21.40394885 59.61157926 -23.17578125 56.25 C-25.78286594 49.13302947 -26.08155784 40.01184983 -23 33 C-19.60673036 27.99046245 -15.41785954 23.76656657 -10 21 C-6.625 20.75 -6.625 20.75 -4 21 C-4.04125 19.88625 -4.0825 18.7725 -4.125 17.625 C-4.125 11.44860139 -3.46149622 5.19224433 0 0 Z " fill="#332B99" transform="translate(69,171)"/>
<path d="M0 0 C3.57510089 1.28979121 6.2997323 2.82395184 9.3125 5.125 C27.25953104 17.90264987 48.6987374 24.48702064 70 29 C70 29.66 70 30.32 70 31 C56.79012141 30.72002184 43.77823223 26.92686686 32 21 C30.7295302 20.38206452 29.45865589 19.7649604 28.1875 19.1484375 C21.2391046 15.75293286 14.4278382 12.32162908 8 8 C6.329375 6.9790625 6.329375 6.9790625 4.625 5.9375 C2.06866276 4.05067966 1.05230825 2.94646309 0 0 Z " fill="#1D1788" transform="translate(61,274)"/>
<path d="M0 0 C0.33 0 0.66 0 1 0 C1.06469482 0.95028076 1.12938965 1.90056152 1.19604492 2.87963867 C2.70779945 24.58721926 4.69887457 45.37600504 12.3984375 65.91796875 C13 68 13 68 12 70 C3.07974163 62.78622584 0.84793556 41.01666679 -0.46875 30.12109375 C-0.9881282 23.31868198 -1.08184194 16.50719226 -1.125 9.6875 C-1.12983398 8.95136475 -1.13466797 8.21522949 -1.13964844 7.45678711 C-1.12243726 2.24487453 -1.12243726 2.24487453 0 0 Z " fill="#20178B" transform="translate(1,144)"/>
<path d="M0 0 C0.33 0 0.66 0 1 0 C0.93941406 0.62003906 0.87882812 1.24007812 0.81640625 1.87890625 C0.30011876 7.33566788 -0.09235486 12.77591346 -0.375 18.25 C-0.70723761 23.60392739 -1.43875887 28.58420205 -2.5625 33.8125 C-4.51391301 42.35379672 -4.51391301 42.35379672 -4 51 C-1.82137181 53.00719496 -1.82137181 53.00719496 1 54 C2.36984198 55.29579647 3.7151049 56.61992749 5 58 C5.70125 57.525625 6.4025 57.05125 7.125 56.5625 C10.16081337 54.91260143 12.59168786 54.39631536 16 54 C16 54.66 16 55.32 16 56 C14.421924 56.84324672 12.8372958 57.67423918 11.25 58.5 C10.36828125 58.9640625 9.4865625 59.428125 8.578125 59.90625 C6 61 6 61 2 61 C0.4375 59.57421875 0.4375 59.57421875 -1 57.6875 C-2.62647766 55.57926673 -3.8405031 54.10175602 -6.09936523 52.66064453 C-8 51 -8 51 -8.29711914 49.02807617 C-8.19004639 48.22861572 -8.08297363 47.42915527 -7.97265625 46.60546875 C-7.8452002 45.62755371 -7.71774414 44.64963867 -7.58642578 43.64208984 C-6.27832573 35.5179281 -4.88995634 27.4121053 -3.4375 19.3125 C-3.1043982 17.43562128 -2.77171242 15.55866867 -2.43945312 13.68164062 C-1.63109784 9.12022744 -0.81711278 4.55985218 0 0 Z " fill="#281F92" transform="translate(86,144)"/>
<path d="M0 0 C0.99 0.495 0.99 0.495 2 1 C-0.19800218 4.29700326 -1.58747 5.10310401 -5 7 C-6.10988281 7.65355469 -7.21976563 8.30710937 -8.36328125 8.98046875 C-16.81050042 13.76719015 -25.34702812 17.42911795 -34.5625 20.5 C-35.5728833 20.83797607 -36.5832666 21.17595215 -37.62426758 21.52416992 C-45.71864288 24.12288688 -52.96029485 25.14461255 -61.5 25.0625 C-62.7271875 25.05347656 -63.954375 25.04445313 -65.21875 25.03515625 C-66.1365625 25.02355469 -67.054375 25.01195312 -68 25 C-68 24.67 -68 24.34 -68 24 C-66.87464844 23.82984375 -65.74929687 23.6596875 -64.58984375 23.484375 C-41.54206356 19.89444892 -19.57052395 13.04701597 0 0 Z " fill="#150F82" transform="translate(237,280)"/>
<path d="M0 0 C9.72151327 16.06163062 6.15907705 44.39942785 3 62 C2.67 62 2.34 62 2 62 C0.94997748 53.09707469 0.91059033 44.2609182 1 35.3125 C1.07780688 27.46419385 1.13713264 19.78362887 0 12 C-0.06209509 9.83412312 -0.08712076 7.66662694 -0.0625 5.5 C-0.05347656 4.4584375 -0.04445313 3.416875 -0.03515625 2.34375 C-0.02355469 1.5703125 -0.01195312 0.796875 0 0 Z " fill="#2A1E95" transform="translate(289,119)"/>
<path d="M0 0 C0.5775 0.44859375 1.155 0.8971875 1.75 1.359375 C7.59178506 5.2936384 10.98821217 6.52540719 18.0625 6.609375 C20.00576172 6.64804688 20.00576172 6.64804688 21.98828125 6.6875 C25.95601948 6.34140445 28.28468349 5.22255847 31.75 3.359375 C32.41 3.689375 33.07 4.019375 33.75 4.359375 C30.15288728 8.35616691 27.13195967 10.06280073 21.76953125 10.73046875 C13.92518536 10.89289735 8.31946246 9.75678395 1.75 5.359375 C1.09 4.699375 0.43 4.039375 -0.25 3.359375 C-3.89239381 3.46650423 -6.23176844 4.90960944 -9.1875 6.859375 C-12.52867211 9.0593498 -15.19498759 10.05524907 -19.25 10.359375 C-16.47055659 7.15232492 -12.9320976 5.16484387 -9.3125 3.046875 C-8.38147461 2.46969727 -8.38147461 2.46969727 -7.43164062 1.88085938 C-2.83436264 -0.80700603 -2.83436264 -0.80700603 0 0 Z " fill="#1D168B" transform="translate(163.25,177.640625)"/>
<path d="M0 0 C4.44357385 1.35775868 6.48591293 3.09883041 9 7 C11.85269304 14.55963654 11.80164435 21.34075362 9.0390625 28.828125 C6.42618636 34.28962551 2.30109493 38.53347577 -3.0546875 41.35546875 C-6.64864023 42.54623622 -10.26752415 42.30469191 -14 42 C-11.28140055 40.18760037 -9.23371521 39.34662221 -6.1875 38.3125 C-0.11941929 35.93841879 3.34888807 32.46676767 6.13671875 26.61328125 C7.95538774 21.10789865 7.95397925 14.59507751 5.75 9.1875 C3.98316923 5.96934396 2.11842689 2.99501733 0 0 Z " fill="#362D9C" transform="translate(252,190)"/>
<path d="M0 0 C2.7607128 2.44216902 4.76080593 5.05424959 6.75 8.125 C10.17315096 13.36696801 13.98457045 18.20071128 18 23 C18.68964844 23.82628906 19.37929688 24.65257812 20.08984375 25.50390625 C25.81152303 32.1153946 32.18071965 37.57688365 39 43 C36 44 36 44 34.125 43.375 C31.36086406 41.58644145 29.31301844 39.34323204 27 37 C26.16082031 36.195625 25.32164063 35.39125 24.45703125 34.5625 C17.54625544 27.86609094 11.64217212 20.78875767 6 13 C5.35417969 12.11441406 4.70835938 11.22882813 4.04296875 10.31640625 C0 4.55020492 0 4.55020492 0 0 Z " fill="#1D1788" transform="translate(21,229)"/>
<path d="M0 0 C11.74097574 -0.41711361 24.24871153 2.22455395 35.28125 6.20703125 C35.28125 6.86703125 35.28125 7.52703125 35.28125 8.20703125 C37.75625 8.70203125 37.75625 8.70203125 40.28125 9.20703125 C36.40586505 10.49882623 34.73755991 9.63413041 30.84375 8.45703125 C11.92550967 3.14709334 -7.19348122 2.5750106 -26.71875 2.20703125 C-26.71875 1.87703125 -26.71875 1.54703125 -26.71875 1.20703125 C-19.98154278 0.88238818 -13.24374366 0.58741273 -6.50390625 0.32275391 C-4.33514097 0.23264217 -2.16728049 0.12065742 0 0 Z " fill="#181284" transform="translate(162.71875,0.79296875)"/>
<path d="M0 0 C-1.63195312 1.10794922 -1.63195312 1.10794922 -3.296875 2.23828125 C-12.53954788 8.58859583 -20.99789128 15.1348746 -29 23 C-29.48678223 23.47840332 -29.97356445 23.95680664 -30.47509766 24.44970703 C-33.34208414 27.2751293 -36.18193956 30.12582774 -39 33 C-39.625 31.14453125 -39.625 31.14453125 -40 29 C-38.39072888 27.13928027 -36.82361296 25.62646562 -35 24 C-33.84905622 22.83837461 -32.70344985 21.67144294 -31.5625 20.5 C-23.04390044 12 -23.04390044 12 -20 12 C-19.67 11.01 -19.34 10.02 -19 9 C-18.01 9 -17.02 9 -16 9 C-15.67 8.01 -15.34 7.02 -15 6 C-11.36339255 2.62386581 -4.9365495 -2.46827475 0 0 Z " fill="#2C2592" transform="translate(77,23)"/>
<path d="M0 0 C0 0.33 0 0.66 0 1 C-0.56283691 1.10022461 -1.12567383 1.20044922 -1.70556641 1.30371094 C-27.80595846 5.85640359 -27.80595846 5.85640359 -51.77734375 16.74609375 C-52.51082031 17.15988281 -53.24429688 17.57367187 -54 18 C-54.66 17.67 -55.32 17.34 -56 17 C-49.40583427 9.77854704 -39.0576322 7.0764261 -30 4 C-29.17757812 3.70996094 -28.35515625 3.41992188 -27.5078125 3.12109375 C-18.53799647 0.15503637 -9.38416481 -0.18046471 0 0 Z " fill="#1A1287" transform="translate(135,3)"/>
<path d="M0 0 C0 0.66 0 1.32 0 2 C-11.06381039 8.08424596 -22.35667154 13.58850491 -33.7890625 18.94458008 C-35.69149017 19.8527288 -37.56924921 20.81223342 -39.44140625 21.78125 C-42.20058086 23.09554386 -43.9829162 23.26621328 -47 23 C-44.30629761 20.87060156 -41.68861105 19.24843509 -38.578125 17.80078125 C-37.29796509 17.19943359 -37.29796509 17.19943359 -35.99194336 16.5859375 C-35.08710205 16.16570312 -34.18226074 15.74546875 -33.25 15.3125 C-31.36008422 14.42443769 -29.47076744 13.53509957 -27.58203125 12.64453125 C-26.64311035 12.20189941 -25.70418945 11.75926758 -24.73681641 11.30322266 C-17.66015514 7.93344408 -10.62305826 4.44059928 -3.69140625 0.78125 C-2 0 -2 0 0 0 Z " fill="#0FA0C7" transform="translate(237,86)"/>
<path d="M0 0 C6.21486875 0.88594938 11.34655479 2.40805176 16.875 5.3671875 C21.9959364 8.04287677 27.25257135 10.43511584 32.48803711 12.87719727 C33.2847583 13.25158936 34.08147949 13.62598145 34.90234375 14.01171875 C35.61898193 14.34647217 36.33562012 14.68122559 37.07397461 15.02612305 C39 16 39 16 42 18 C42 18.66 42 19.32 42 20 C36.98842725 19.36755609 32.88531826 17.18030206 28.41796875 14.96484375 C27.19670036 14.36767296 27.19670036 14.36767296 25.95075989 13.75843811 C23.36030256 12.49022107 20.77388896 11.21399027 18.1875 9.9375 C16.42799535 9.07433761 14.6682325 8.21170132 12.90820312 7.34960938 C8.60245296 5.23915771 4.30031066 3.12151191 0 1 C0 0.67 0 0.34 0 0 Z " fill="#1FA4C6" transform="translate(202,54)"/>
<path d="M0 0 C0.33 0 0.66 0 1 0 C1.41235307 3.99745851 1.82107512 7.99527209 2.22680664 11.9934082 C2.43130362 14.00164914 2.63846186 16.00961853 2.84570312 18.01757812 C3.64859993 25.94863195 4.28857565 33.86135414 4.72631836 41.82128906 C4.96425639 44.58485119 5.38853281 47.02312265 6.125 49.6875 C6.98746478 52.95254525 6.94793201 53.93590991 6 57 C5.37027554 54.56363885 4.74619914 52.12603705 4.125 49.6875 C3.95097656 49.01654297 3.77695312 48.34558594 3.59765625 47.65429688 C3.03678919 45.4419879 2.5114554 43.22425242 2 41 C1.81034668 40.19280518 1.62069336 39.38561035 1.42529297 38.55395508 C-0.27243037 30.48186058 -0.22921163 22.52850541 -0.125 14.3125 C-0.11494059 12.9173242 -0.10582002 11.5221413 -0.09765625 10.12695312 C-0.07429406 6.7511163 -0.04153668 3.37565382 0 0 Z " fill="#1D168A" transform="translate(13,140)"/>
<path d="M0 0 C8.60903717 8.08727734 21.51402608 22.25246936 22.1875 34.375 C22.0946875 35.674375 22.0946875 35.674375 22 37 C19.08885502 33.40928174 17.00904884 29.48152451 14.8125 25.4375 C11.00521971 18.53311792 6.78304583 12.27416324 2 6 C0 3 0 3 0 0 Z " fill="#272195" transform="translate(270,54)"/>
<path d="M0 0 C1.43875671 0.05842008 2.87755941 0.11571851 4.31640625 0.171875 C7.7948951 0.31003043 11.27252053 0.46321215 14.75 0.625 C14.75 0.955 14.75 1.285 14.75 1.625 C13.59890747 1.63116333 13.59890747 1.63116333 12.42456055 1.63745117 C-5.56254723 1.80440658 -22.2861367 3.32438558 -39.90698242 7.29541016 C-42.25 7.625 -42.25 7.625 -45.25 6.625 C-42.66928574 5.8238778 -40.08588151 5.03413443 -37.5 4.25 C-36.43458984 3.91742188 -36.43458984 3.91742188 -35.34765625 3.578125 C-23.47519279 0.00587936 -12.2843121 -0.57694281 0 0 Z " fill="#1A128D" transform="translate(150.25,14.375)"/>
<path d="M0 0 C-1.40580894 3.2234205 -3.06730023 5.23034085 -5.625 7.625 C-10.2061355 12.08119544 -14.08634976 16.95994202 -18 22 C-18.69480469 22.84691406 -19.38960937 23.69382812 -20.10546875 24.56640625 C-21.68736916 26.59841441 -22.89765061 28.47072761 -24.0625 30.75 C-26 34 -26 34 -29 35 C-27.49190672 30.60757532 -25.14097406 27.04284328 -22.4375 23.3125 C-21.77476074 22.39210938 -21.77476074 22.39210938 -21.09863281 21.453125 C-17.08647712 15.96612264 -12.70220466 10.90899378 -8 6 C-7.39800781 5.35804687 -6.79601562 4.71609375 -6.17578125 4.0546875 C-2.28139535 0 -2.28139535 0 0 0 Z " fill="#1E198C" transform="translate(60,50)"/>
<path d="M0 0 C0.495 1.98 0.495 1.98 1 4 C-8.25894948 11.88039478 -8.25894948 11.88039478 -14 12 C-14.69996094 12.03609375 -15.39992188 12.0721875 -16.12109375 12.109375 C-21.07304101 12.2763884 -25.35770443 11.91153347 -30 10 C-32.4375 7.375 -32.4375 7.375 -34 5 C-28.31404959 6.85123967 -28.31404959 6.85123967 -25.625 8.125 C-18.56309375 10.47896875 -12.66185831 8.53597367 -6 6 C-5.01 5.67 -4.02 5.34 -3 5 C-1.8499169 3.03327085 -1.8499169 3.03327085 -1 1 C-0.67 0.67 -0.34 0.34 0 0 Z " fill="#1E1688" transform="translate(88,229)"/>
<path d="M0 0 C9.80667113 -0.0683524 19.57480476 0.13074621 29.375 0.5 C30.70832498 0.54840775 32.04165832 0.59658574 33.375 0.64453125 C36.58342236 0.76077844 39.79174272 0.8792971 43 1 C43.495 1.99 43.495 1.99 44 3 C39.34099845 3.04991513 34.68215697 3.0859601 30.02294922 3.10986328 C28.44219242 3.11984159 26.86145369 3.13342907 25.28076172 3.15087891 C16.64845765 3.24369938 8.39931125 3.32020837 0 1 C0 0.67 0 0.34 0 0 Z " fill="#171080" transform="translate(127,291)"/>
<path d="M0 0 C0.66 0.33 1.32 0.66 2 1 C0.61166413 3.77667174 -1.12823106 4.26742824 -3.875 5.6875 C-12.194231 10.12226517 -20.08241537 15.00065005 -27.34375 21.03125 C-27.8903125 21.3509375 -28.436875 21.670625 -29 22 C-29.99 21.67 -30.98 21.34 -32 21 C-26.215339 16.02185423 -20.21793615 11.71951832 -13.75 7.6875 C-13.07710937 7.26742676 -12.40421875 6.84735352 -11.7109375 6.41455078 C-7.90462064 4.07415487 -4.10653485 1.77990342 0 0 Z " fill="#231D8D" transform="translate(95,25)"/>
<path d="M0 0 C0.33 0 0.66 0 1 0 C1.33 20.13 1.66 40.26 2 61 C4.64 60.67 7.28 60.34 10 60 C7.64531545 62.72647685 5.4591583 63.98756342 2 65 C-0.3125 64.625 -0.3125 64.625 -2 64 C-1.01 63.505 -1.01 63.505 0 63 C0 42.21 0 21.42 0 0 Z " fill="#22C0E1" transform="translate(177,50)"/>
<path d="M0 0 C0.33 0.66 0.66 1.32 1 2 C1.66 2 2.32 2 3 2 C8.43383528 13.76367531 12.01171624 26.98820504 11 40 C10.67 40 10.34 40 10 40 C9.67 35.71 9.34 31.42 9 27 C8.34 27 7.68 27 7 27 C6.78851318 26.17592651 6.78851318 26.17592651 6.57275391 25.33520508 C5.92692683 22.82674079 5.27601097 20.31962371 4.625 17.8125 C4.29242188 16.51602539 4.29242188 16.51602539 3.953125 15.19335938 C2.85816824 10.9906577 1.62475072 7.03150763 0 3 C0 2.01 0 1.02 0 0 Z " fill="#2B229B" transform="translate(294,96)"/>
<path d="M0 0 C1.16311291 3.42202665 0.81860594 5.5511928 -0.1796875 8.9921875 C-0.44910156 9.94480469 -0.71851563 10.89742187 -0.99609375 11.87890625 C-1.28613281 12.86761719 -1.57617188 13.85632813 -1.875 14.875 C-4.3662862 23.33972728 -4.3662862 23.33972728 -6 32 C-6.66 32 -7.32 32 -8 32 C-8 33.98 -8 35.96 -8 38 C-8.33 38 -8.66 38 -9 38 C-8.85510814 29.80702399 -7.82511668 22.36855725 -5.625 14.5 C-5.41593018 13.74734863 -5.20686035 12.99469727 -4.99145508 12.21923828 C-3.72493082 7.88860477 -2.15748586 3.98693294 0 0 Z " fill="#1D168B" transform="translate(23,100)"/>
<path d="M0 0 C0.33 0 0.66 0 1 0 C1.10957031 0.86882812 1.21914062 1.73765625 1.33203125 2.6328125 C2.24466429 12.47734277 2.24466429 12.47734277 7.6328125 20.2734375 C9.85193565 22.154219 10.89221155 23.26829439 12 26 C11.93113986 32.08694979 10.38542164 38.10259706 9 44 C8.67 44 8.34 44 8 44 C8.06960937 42.78183594 8.13921875 41.56367188 8.2109375 40.30859375 C8.88310096 31.6699272 8.88310096 31.6699272 6.734375 23.52734375 C5.15647633 21.8656217 5.15647633 21.8656217 3.46875 20.4140625 C0.11365452 17.18389079 0.05301424 12.43138437 -0.109375 8.046875 C-0.1231513 5.36049673 -0.08883343 2.68474375 0 0 Z " fill="#181183" transform="translate(68,90)"/>
<path d="M0 0 C5.33145463 1.39575372 8.7671445 3.82477843 12.9375 7.25 C13.55069092 7.74435547 14.16388184 8.23871094 14.7956543 8.74804688 C16.53734384 10.15713737 18.2690614 11.57774369 20 13 C20.80179688 13.64453125 21.60359375 14.2890625 22.4296875 14.953125 C26.86595238 18.59785714 26.86595238 18.59785714 28 22 C24.82075366 20.55423413 22.32088812 18.77533649 19.625 16.5625 C16.51745182 14.03180208 13.3989488 11.52135149 10.234375 9.0625 C9.5954834 8.56548584 8.9565918 8.06847168 8.29833984 7.55639648 C7.02427235 6.5668028 5.74857383 5.57930515 4.47119141 4.59399414 C2.96273296 3.41881923 1.47872101 2.21238077 0 1 C0 0.67 0 0.34 0 0 Z " fill="#1F1988" transform="translate(135,121)"/>
<path d="M0 0 C3.62578717 0.55175022 5.07874234 1.69709194 7.25 4.625 C11.26579117 10.95291335 10.80586932 17.76267357 10 25 C9.33458892 27.33369171 8.6681881 29.6671019 8 32 C8.33 32.66 8.66 33.32 9 34 C8.01 33.67 7.02 33.34 6 33 C6.165 32.113125 6.33 31.22625 6.5 30.3125 C8.12221619 18.17045759 6.78459417 10.17689125 0 0 Z " fill="#20168E" transform="translate(111,75)"/>
<path d="M0 0 C5.04211102 3.809595 8.87574908 8.11432037 12.75 13.0625 C13.22155518 13.66400879 13.69311035 14.26551758 14.17895508 14.88525391 C21 23.73569056 21 23.73569056 21 27 C17.00801146 25.50628 15.67942862 23.3004567 13.5625 19.6875 C11.04435696 15.56934283 8.61981828 12.23878478 5 9 C2.1875 6.4375 2.1875 6.4375 0 4 C0 2.68 0 1.36 0 0 Z " fill="#1B168A" transform="translate(253,55)"/>
<path d="M0 0 C0.33 0 0.66 0 1 0 C0.55212563 11.8686708 -1.74607284 23.36697914 -4 35 C-4.33 35 -4.66 35 -5 35 C-5.43496578 23.93253744 -4.22636903 13.82704462 -2 3 C-1.34 3 -0.68 3 0 3 C0 2.01 0 1.02 0 0 Z " fill="#1E1589" transform="translate(75,135)"/>
<path d="M0 0 C5.33843289 6.06640101 5.19948881 12.54774848 4.97265625 20.23046875 C4.99708916 22.70517353 5.27621629 24.64910563 6 27 C2.125 25.125 2.125 25.125 1 24 C0.97921921 21.64583287 1.00916595 19.29115465 1.0625 16.9375 C1.14903744 11.27432873 0.62697155 6.42323851 -1 1 C-0.67 0.67 -0.34 0.34 0 0 Z " fill="#2A2398" transform="translate(204,147)"/>
<path d="M0 0 C0 4.46754844 -2.72353868 6.47097731 -5.56640625 9.74609375 C-7.26111449 11.8820817 -7.26111449 11.8820817 -6.71484375 14.28515625 C-6.47894531 14.85105469 -6.24304687 15.41695312 -6 16 C-6.7425 16.185625 -7.485 16.37125 -8.25 16.5625 C-12.16528579 18.60912666 -13.04375275 21.0875055 -15 25 C-16 23 -16 23 -15.50390625 21.22265625 C-12.03753036 13.26869 -7.32109951 4.93520547 0 0 Z " fill="#30299D" transform="translate(35,57)"/>
<path d="M0 0 C1.15190694 4.60762775 0.5352408 6.42518718 -0.75 10.9375 C-3.43463338 20.81395231 -4.71651567 30.86224816 -6 41 C-6.33 41 -6.66 41 -7 41 C-7.3181514 29.84113421 -7.25110453 19.77895966 -4 9 C-3.34 9 -2.68 9 -2 9 C-1.34 6.03 -0.68 3.06 0 0 Z " fill="#170E83" transform="translate(9,102)"/>
<path d="M0 0 C40.29713125 -0.8019125 40.29713125 -0.8019125 49 5 C46.68702112 4.88419869 44.37461891 4.75686126 42.0625 4.625 C40.13083984 4.52058594 40.13083984 4.52058594 38.16015625 4.4140625 C35.27645354 4.19352598 32.61550429 3.70467842 29.8125 3 C23.91006471 1.60544418 17.97819815 1.54231305 11.9375 1.375 C10.78572266 1.33632812 9.63394531 1.29765625 8.44726562 1.2578125 C5.63166204 1.16434848 2.8160514 1.07858748 0 1 C0 0.67 0 0.34 0 0 Z " fill="#0A057B" transform="translate(140,14)"/>
<path d="M0 0 C1.07825374 3.23476122 0.97270198 5.30593926 0.8125 8.6875 C0.77353596 15.13994546 1.87489995 19.80805289 6.4609375 24.4921875 C7.91225144 25.73722331 9.45494543 26.87339771 11 28 C12.175625 28.8971875 12.175625 28.8971875 13.375 29.8125 C13.91125 30.204375 14.4475 30.59625 15 31 C8.86928482 30.10510258 4.90637373 29.17020053 1 24 C-3.39619397 17.25916925 -2.00160551 9.66970147 -1 2 C-0.67 1.34 -0.34 0.68 0 0 Z " fill="#1F1889" transform="translate(216,199)"/>
<path d="M0 0 C0.73089844 0.433125 0.73089844 0.433125 1.4765625 0.875 C0.4865625 1.37 0.4865625 1.37 -0.5234375 1.875 C-1.24917969 1.57335937 -1.97492188 1.27171875 -2.72265625 0.9609375 C-8.58549422 -1.31224096 -16.13647185 -1.20964761 -22.109375 0.703125 C-25.07829673 2.18206743 -27.76633251 4.03693 -30.5234375 5.875 C-30.5234375 3.625 -30.5234375 3.625 -29.5234375 0.875 C-20.80831523 -5.44773576 -9.32161871 -4.88113852 0 0 Z " fill="#1C1585" transform="translate(106.5234375,71.125)"/>
<path d="M0 0 C2.25 0.25 2.25 0.25 5 1 C5.52207031 1.67289063 6.04414063 2.34578125 6.58203125 3.0390625 C10.29038427 6.04648288 13.82367921 5.35586594 18.4375 5.125 C28.66665092 4.70430377 28.66665092 4.70430377 33 7 C30 8 30 8 28.3125 7.5625 C22.29357064 6.0984361 16.74749957 7.09692085 10.8828125 8.66015625 C9 9 9 9 7 8 C7 7.34 7 6.68 7 6 C6.401875 5.7525 5.80375 5.505 5.1875 5.25 C2.71352479 3.83629988 1.56629745 2.34944617 0 0 Z " fill="#191183" transform="translate(216,180)"/>
<path d="M0 0 C1.98 0 3.96 0 6 0 C5.01 0.33 4.02 0.66 3 1 C3 7.6 3 14.2 3 21 C2.01 21 1.02 21 0 21 C0 14.07 0 7.14 0 0 Z " fill="#20178F" transform="translate(175,115)"/>
<path d="M0 0 C1.16529437 3.49588312 0.92477187 6.01331875 0.75 9.6875 C0.67789937 15.50361722 1.2768316 18.90236403 4.90625 23.44921875 C6 25 6 25 6 28 C2.3342926 26.82173691 0.59886595 24.61659891 -1.171875 21.2578125 C-3.3289454 15.37674321 -4.05857775 8.59795358 -1.5625 2.75 C-1.046875 1.8425 -0.53125 0.935 0 0 Z " fill="#170D88" transform="translate(47,206)"/>
<path d="M0 0 C3.03292756 3.58942803 4.72702888 7.53762855 6.5625 11.8125 C7.01786133 12.84213867 7.01786133 12.84213867 7.48242188 13.89257812 C12.30719628 25.00322419 12.30719628 25.00322419 11.625 29.4375 C11.41875 29.953125 11.2125 30.46875 11 31 C9.68373308 27.38026598 9 24.90432869 9 21 C8.34 21 7.68 21 7 21 C6.66226562 20.18015625 6.32453125 19.3603125 5.9765625 18.515625 C5.53054688 17.43796875 5.08453125 16.3603125 4.625 15.25 C4.18414062 14.18265625 3.74328125 13.1153125 3.2890625 12.015625 C2.08870257 9.10129655 2.08870257 9.10129655 0.84375 6.78125 C-0.25867408 4.45391027 -0.14114216 2.5405588 0 0 Z " fill="#261F90" transform="translate(277,87)"/>
<path d="M0 0 C3 3.75 3 3.75 3 6 C3.99 6.33 4.98 6.66 6 7 C7.64820195 9.60242414 8 10.86248779 8 14 C8.66 14 9.32 14 10 14 C10.86375896 15.61992165 11.71575854 17.24611861 12.5625 18.875 C13.03816406 19.77992188 13.51382813 20.68484375 14.00390625 21.6171875 C14.33261719 22.40351563 14.66132812 23.18984375 15 24 C14.67 24.66 14.34 25.32 14 26 C0 7.14893617 0 7.14893617 0 0 Z " fill="#1F198A" transform="translate(25,210)"/>
<path d="M0 0 C0.33 0 0.66 0 1 0 C1.22379488 11.55030268 0.91025574 22.5896331 -1 34 C-1.33 34 -1.66 34 -2 34 C-2.78441153 27.43507888 -3.10914408 21.53162622 -2 15 C-1.34 15 -0.68 15 0 15 C0 10.05 0 5.1 0 0 Z " fill="#140B83" transform="translate(293,147)"/>
<path d="M0 0 C0.33 0.66 0.66 1.32 1 2 C-1.32599422 8.32994447 -4.93855745 14.47789149 -10 19 C-10.99 19.33 -11.98 19.66 -13 20 C-11.66349743 17.19607216 -10.1678969 14.66068855 -8.3984375 12.109375 C-7.90859375 11.40039062 -7.41875 10.69140625 -6.9140625 9.9609375 C-6.40617187 9.23132813 -5.89828125 8.50171875 -5.375 7.75 C-4.859375 7.00492188 -4.34375 6.25984375 -3.8125 5.4921875 C-2.54395914 3.6598507 -1.27306421 1.82919561 0 0 Z " fill="#2F2696" transform="translate(283,231)"/>
<path d="M0 0 C-2.37369268 2.62355506 -4.96613477 4.21079743 -8 6 C-8.66 6.66 -9.32 7.32 -10 8 C-12.94793662 9.31881375 -15.84915051 10.29981122 -19 11 C-17.67099534 7.01298602 -15.17689791 5.88588572 -11.75 3.8125 C-11.17636719 3.44447266 -10.60273437 3.07644531 -10.01171875 2.69726562 C-6.54057044 0.56634428 -4.0823105 -0.46808447 0 0 Z " fill="#1F1987" transform="translate(126,184)"/>
<path d="M0 0 C0.33 0 0.66 0 1 0 C0.93941406 0.63164062 0.87882812 1.26328125 0.81640625 1.9140625 C0.09635714 9.60197142 -0.47145554 17.29674563 -1 25 C-1.66 25 -2.32 25 -3 25 C-3.33 28.3 -3.66 31.6 -4 35 C-4.33 35 -4.66 35 -5 35 C-4.55212563 23.1313292 -2.25392716 11.63302086 0 0 Z " fill="#0D087B" transform="translate(86,144)"/>
<path d="M0 0 C2.01532628 6.04597883 -2.51796338 13.20384228 -5.25 18.6875 C-5.8275 19.780625 -6.405 20.87375 -7 22 C-7.33 22 -7.66 22 -8 22 C-7.50104522 14.84831485 -4.68436185 8.58708719 -2 2 C-1.34 2 -0.68 2 0 2 C0 1.34 0 0.68 0 0 Z " fill="#1F178D" transform="translate(287,194)"/>
<path d="M0 0 C0.66 0.33 1.32 0.66 2 1 C-1.28466137 4.67882073 -4.66360908 6.75150101 -9 9 C-9.66 9 -10.32 9 -11 9 C-11.33 11.31 -11.66 13.62 -12 16 C-12.66 16 -13.32 16 -14 16 C-14.30888721 12.5404633 -14.43650116 11.08639561 -13 8 C-8.97229174 4.72884775 -4.71906763 2.15395675 0 0 Z " fill="#191382" transform="translate(105,209)"/>
<path d="M0 0 C0.33 0 0.66 0 1 0 C1.35482211 7.21471629 0.1591338 13.12418702 -2 20 C-2.66 20 -3.32 20 -4 20 C-4.33 20.99 -4.66 21.98 -5 23 C-4.32418477 16.91766294 -3.26361972 10.98685848 -2 5 C-1.34 5 -0.68 5 0 5 C0 3.35 0 1.7 0 0 Z " fill="#261C94" transform="translate(304,175)"/>
<path d="M0 0 C4.78580469 -0.33389335 7.0362121 0.38970065 11 3 C12.24312208 3.51686313 13.49357697 4.0163667 14.75 4.5 C16.35875 5.2425 16.35875 5.2425 18 6 C18.33 6.99 18.66 7.98 19 9 C14.53202662 7.60121198 10.36177921 5.86369228 6.125 3.875 C4.97257813 3.33617187 3.82015625 2.79734375 2.6328125 2.2421875 C1.76398438 1.83226562 0.89515625 1.42234375 0 1 C0 0.67 0 0.34 0 0 Z " fill="#1E1886" transform="translate(207,12)"/>
<path d="M0 0 C0.66 0.33 1.32 0.66 2 1 C-0.7578993 3.92986993 -3.50391411 6.15493064 -6.9375 8.25 C-7.77152344 8.77078125 -8.60554688 9.2915625 -9.46484375 9.828125 C-12.21471825 11.09925343 -14.00882725 11.23544115 -17 11 C-14.21503399 7.75258576 -10.60463249 5.83910905 -6.9375 3.75 C-6.30005859 3.37359375 -5.66261719 2.9971875 -5.00585938 2.609375 C-3.3733501 1.67356357 -1.68928489 0.82894277 0 0 Z " fill="#181288" transform="translate(126,197)"/>
<path d="M0 0 C0.33 0 0.66 0 1 0 C1.3690205 14.78132118 1.3690205 14.78132118 -1 21 C-1.66 21 -2.32 21 -3 21 C-3 21.66 -3 22.32 -3 23 C-3.66 22.67 -4.32 22.34 -5 22 C-4.54625 20.783125 -4.0925 19.56625 -3.625 18.3125 C-1.61273848 12.34247292 -0.81813158 6.22742511 0 0 Z " fill="#342A9D" transform="translate(290,173)"/>
<path d="M0 0 C-0.66 0 -1.32 0 -2 0 C-2 0.66 -2 1.32 -2 2 C-4.28703308 3.19725883 -6.57884862 4.38297018 -8.875 5.5625 C-9.52597656 5.90474609 -10.17695312 6.24699219 -10.84765625 6.59960938 C-12.53529857 7.46082891 -14.26579593 8.23686703 -16 9 C-16.66 8.67 -17.32 8.34 -18 8 C-15.09031012 4.78764735 -12.38228027 2.96399288 -8.4375 1.1875 C-7.48746094 0.74792969 -6.53742188 0.30835938 -5.55859375 -0.14453125 C-3 -1 -3 -1 0 0 Z " fill="#2A1F91" transform="translate(97,12)"/>
<path d="M0 0 C6.25730861 1.28355048 10.83452218 5.32540822 15 10 C15 10.99 15 11.98 15 13 C11.12207603 11.38419835 8.28921212 8.75734641 5.25 5.9375 C4.74339844 5.47794922 4.23679688 5.01839844 3.71484375 4.54492188 C2.45382769 3.38757425 1.22393107 2.19649813 0 1 C0 0.67 0 0.34 0 0 Z " fill="#24208A" transform="translate(250,37)"/>
<path d="M0 0 C5.18701457 0.31436452 8.5947359 3.30033267 12 7 C12 7.66 12 8.32 12 9 C12.66 9 13.32 9 14 9 C14.33 9.99 14.66 10.98 15 12 C10.70697803 10.58446303 7.99477764 8.48999477 4.6875 5.4375 C3.80449219 4.63183594 2.92148437 3.82617188 2.01171875 2.99609375 C1.34785156 2.33738281 0.68398438 1.67867188 0 1 C0 0.67 0 0.34 0 0 Z " fill="#201A88" transform="translate(57,255)"/>
<path d="M0 0 C0 3.99711412 -1.32141544 5.1042329 -4 8 C-8.39945826 11.64526542 -12.56095318 11.31994393 -18 11 C-15.29539104 9.19692736 -13.14827807 8.26724217 -10.125 7.1875 C-5.64267515 5.45092677 -3.06024128 3.67228954 0 0 Z " fill="#150F7F" transform="translate(256,221)"/>
<path d="M0 0 C3.89917968 1.61537444 6.71293772 4.27924873 9.75 7.125 C10.25660156 7.59292969 10.76320312 8.06085938 11.28515625 8.54296875 C12.52719141 9.69126541 13.76411494 10.84508672 15 12 C14.01 12.33 13.02 12.66 12 13 C6.87667621 9.70718615 3.04830876 5.20752746 0 0 Z " fill="#1F1A87" transform="translate(202,184)"/>
<path d="M0 0 C0.33 0.66 0.66 1.32 1 2 C1.66 2 2.32 2 3 2 C7.59225513 12.37357631 7.59225513 12.37357631 7 18 C6.67 17.01 6.34 16.02 6 15 C5.34 15 4.68 15 4 15 C3.32779649 13.06441401 2.66241923 11.12645628 2 9.1875 C1.62875 8.10855469 1.2575 7.02960938 0.875 5.91796875 C0 3 0 3 0 0 Z " fill="#241C91" transform="translate(294,96)"/>
<path d="M0 0 C6.04490801 1.72111964 12.23049369 3.73733496 17 8 C17 8.99 17 9.98 17 11 C13.26426682 9.23384892 9.76637707 7.0975602 6.25 4.9375 C5.64800781 4.57333984 5.04601562 4.20917969 4.42578125 3.83398438 C2.93251679 2.91804779 1.4637333 1.96242579 0 1 C0 0.67 0 0.34 0 0 Z " fill="#1B1483" transform="translate(228,22)"/>
<path d="M0 0 C7.31110994 -0.3689719 13.21256822 0.18447274 20 3 C20 3.66 20 4.32 20 5 C20.66 5.33 21.32 5.66 22 6 C19.0580935 5.58950142 16.40992539 5.16943583 13.65625 4.03125 C10.82925827 2.93371203 8.17441399 2.37881682 5.1875 1.875 C4.21167969 1.70742188 3.23585937 1.53984375 2.23046875 1.3671875 C1.49441406 1.24601562 0.75835937 1.12484375 0 1 C0 0.67 0 0.34 0 0 Z " fill="#1F198E" transform="translate(179,18)"/>
<path d="M0 0 C0 0.66 0 1.32 0 2 C-1.32 2 -2.64 2 -4 2 C-4 2.66 -4 3.32 -4 4 C-7.9813783 5.3271261 -11.85045227 5.06915913 -16 5 C-16.33 4.34 -16.66 3.68 -17 3 C-14.54212344 2.49766027 -12.08374976 1.99803143 -9.625 1.5 C-8.57699219 1.28537109 -8.57699219 1.28537109 -7.5078125 1.06640625 C-2.2265625 0 -2.2265625 0 0 0 Z " fill="#2B2295" transform="translate(186,288)"/>
<path d="M0 0 C0.66 0.33 1.32 0.66 2 1 C-8.37357631 8.66742597 -8.37357631 8.66742597 -14 10 C-12.7874289 6.36228669 -11.98156536 6.15731481 -8.6875 4.4375 C-7.90761719 4.02371094 -7.12773437 3.60992187 -6.32421875 3.18359375 C-5.55722656 2.79300781 -4.79023438 2.40242188 -4 2 C-3.28457031 1.59910156 -2.56914062 1.19820313 -1.83203125 0.78515625 C-1.22746094 0.52605469 -0.62289062 0.26695312 0 0 Z " fill="#1C1686" transform="translate(231,269)"/>
<path d="M0 0 C11.02446483 1.81957187 11.02446483 1.81957187 15 5 C15 5.66 15 6.32 15 7 C15.66 7.33 16.32 7.66 17 8 C12.76677156 7.37954537 9.47709705 5.89476441 5.6875 3.9375 C4.61886719 3.38964844 3.55023438 2.84179688 2.44921875 2.27734375 C1.64097656 1.85582031 0.83273438 1.43429688 0 1 C0 0.67 0 0.34 0 0 Z " fill="#13A0C2" transform="translate(202,54)"/>
<path d="M0 0 C0.66 0.33 1.32 0.66 2 1 C0.55731309 3.88537382 -1.51742119 4.62891963 -4.3125 6.1875 C-5.27800781 6.73792969 -6.24351563 7.28835937 -7.23828125 7.85546875 C-10.14331623 9.05939414 -11.14998148 9.17114775 -14 8 C-12.41779413 7.03980636 -10.83418669 6.08192202 -9.25 5.125 C-7.92742187 4.32449219 -7.92742187 4.32449219 -6.578125 3.5078125 C-1.97546012 0.81595092 -1.97546012 0.81595092 0 0 Z " fill="#140E81" transform="translate(95,25)"/>
<path d="M0 0 C8.20224719 6.74157303 8.20224719 6.74157303 10 10 C9.67 10.99 9.34 11.98 9 13 C8.60167969 12.51789063 8.20335937 12.03578125 7.79296875 11.5390625 C7.26316406 10.90742187 6.73335938 10.27578125 6.1875 9.625 C5.66542969 8.99851562 5.14335937 8.37203125 4.60546875 7.7265625 C2.91774261 5.7778952 2.91774261 5.7778952 0 4 C0 2.68 0 1.36 0 0 Z " fill="#272393" transform="translate(253,55)"/>
<path d="M0 0 C2.8790199 0.93735532 5.71230066 1.87772778 8.5 3.0625 C11.31563821 4.11836433 14.0279836 4.58530004 17 5 C17 5.33 17 5.66 17 6 C6.24614413 6.86107387 6.24614413 6.86107387 2.3125 3.5625 C0 1 0 1 0 0 Z " fill="#130C80" transform="translate(54,234)"/>
<path d="M0 0 C5.1396616 -0.626788 7.66106898 0.71674453 11.6796875 3.61328125 C13 5 13 5 13 8 C12.34 8 11.68 8 11 8 C11 7.34 11 6.68 11 6 C7.41247258 4.13448574 3.72187807 2.57464072 0 1 C0 0.67 0 0.34 0 0 Z " fill="#1D1885" transform="translate(188,137)"/>
<path d="M0 0 C-1.40844718 3.21524305 -3.10344786 5.32183868 -5.625 7.75 C-6.57246094 8.67039062 -6.57246094 8.67039062 -7.5390625 9.609375 C-8.02117188 10.06828125 -8.50328125 10.5271875 -9 11 C-9.99 10.67 -10.98 10.34 -12 10 C-10.38113585 8.32737283 -8.7547271 6.66204463 -7.125 5 C-6.22007813 4.071875 -5.31515625 3.14375 -4.3828125 2.1875 C-2 0 -2 0 0 0 Z " fill="#140E84" transform="translate(60,50)"/>
<path d="M0 0 C4.87664009 -0.34833144 7.77050005 0.58314288 12 3 C12 3.66 12 4.32 12 5 C12.66 5.33 13.32 5.66 14 6 C8.65155992 5.46515599 4.64203897 3.53309233 0 1 C0 0.67 0 0.34 0 0 Z " fill="#1F198B" transform="translate(94,280)"/>
<path d="M0 0 C4.98748002 0.4749981 8.06964437 1.89227695 12 5 C12.33 5.99 12.66 6.98 13 8 C8.27626146 6.37621488 4.05818166 3.89006982 0 1 C0 0.67 0 0.34 0 0 Z " fill="#1B1585" transform="translate(73,268)"/>
<path d="M0 0 C0.33 0.99 0.66 1.98 1 3 C-0.26138195 4.34227818 -1.53444559 5.67358677 -2.8125 7 C-3.87404297 8.11375 -3.87404297 8.11375 -4.95703125 9.25 C-7 11 -7 11 -10 11 C-10 10.34 -10 9.68 -10 9 C-8.3203125 7.34375 -8.3203125 7.34375 -6.125 5.5 C-4.00964496 3.71066742 -1.95980876 1.95980876 0 0 Z " fill="#241E8B" transform="translate(262,259)"/>
<path d="M0 0 C5.28 0.33 10.56 0.66 16 1 C16 1.99 16 2.98 16 4 C14.08249714 3.91256669 12.16593335 3.8043811 10.25 3.6875 C9.18265625 3.62949219 8.1153125 3.57148438 7.015625 3.51171875 C4 3 4 3 0 0 Z " fill="#322A99" transform="translate(225,229)"/>
<path d="M0 0 C1.12525742 3.37577225 0.87828528 4.27858292 -0.1875 7.5625 C-0.54908203 8.74005859 -0.54908203 8.74005859 -0.91796875 9.94140625 C-2.2328139 12.44293474 -3.40563017 13.00629727 -6 14 C-4.50829734 9.0276578 -2.39542583 4.58154261 0 0 Z " fill="#231A8D" transform="translate(293,212)"/>
<path d="M0 0 C0.99 0.33 1.98 0.66 3 1 C-0.3 3.97 -3.6 6.94 -7 10 C-7.66 9.67 -8.32 9.34 -9 9 C-3.29268293 1.86585366 -3.29268293 1.86585366 0 0 Z " fill="#1B1586" transform="translate(245,257)"/>
<path d="M0 0 C-0.65226562 0.19335938 -1.30453125 0.38671875 -1.9765625 0.5859375 C-6.6771398 1.98640448 -11.35840891 3.41208726 -16 5 C-15 2 -15 2 -12.8125 0.875 C-8.21749395 -0.55455744 -4.65797035 -1.33227969 0 0 Z " fill="#302999" transform="translate(112,22)"/>
<path d="M0 0 C-2.2235486 0.99793249 -4.44921571 1.99026977 -6.6796875 2.97265625 C-8.39902367 3.73391115 -10.10858028 4.51733746 -11.8125 5.3125 C-14.30672032 6.09639781 -15.57617669 5.89771234 -18 5 C-16.02 4.67 -14.04 4.34 -12 4 C-12 3.34 -12 2.68 -12 2 C-3.38461538 -1.69230769 -3.38461538 -1.69230769 0 0 Z " fill="#2C2398" transform="translate(218,294)"/>
<path d="M0 0 C3.99452176 1.36955032 6.92159754 3.0926199 10 6 C10.640625 8.1328125 10.640625 8.1328125 11 10 C9.53426066 9.09522263 8.07764244 8.17565859 6.625 7.25 C5.81289062 6.73953125 5.00078125 6.2290625 4.1640625 5.703125 C1.91444321 3.9326665 1.04093152 2.63092581 0 0 Z " fill="#29238E" transform="translate(61,274)"/>
<path d="M0 0 C0.33 0 0.66 0 1 0 C0.58169634 7.22124213 0.04538889 14.04567778 -2 21 C-3.05994631 17.65405008 -2.97506299 14.914477 -2.625 11.4375 C-2.53476563 10.48746094 -2.44453125 9.53742188 -2.3515625 8.55859375 C-1.9373188 5.54382015 -0.96112782 2.88338346 0 0 Z " fill="#0D087A" transform="translate(69,171)"/>
<path d="M0 0 C5.04424468 0.44508041 7.44443409 2.60980925 11 6 C11 6.66 11 7.32 11 8 C9.68 7.67 8.36 7.34 7 7 C7 6.34 7 5.68 7 5 C5.68 4.67 4.36 4.34 3 4 C3 3.34 3 2.68 3 2 C2.01 1.67 1.02 1.34 0 1 C0 0.67 0 0.34 0 0 Z " fill="#2B2492" transform="translate(122,128)"/>
<path d="M0 0 C2.4375 0.75 2.4375 0.75 5 2 C5.9375 3.875 5.9375 3.875 6 6 C5.0625 8.25 5.0625 8.25 4 10 C2.875 6.25 2.875 6.25 4 4 C1.69 3.67 -0.62 3.34 -3 3 C-2.01 2.67 -1.02 2.34 0 2 C0 1.34 0 0.68 0 0 Z " fill="#2BB2D1" transform="translate(244,72)"/>
<path d="M0 0 C5.02265357 1.18180084 8.0949151 2.44992282 12 6 C9.1875 6.6875 9.1875 6.6875 6 7 C4.3125 5.75 4.3125 5.75 3 4 C2.443125 3.46375 1.88625 2.9275 1.3125 2.375 C0 1 0 1 0 0 Z " fill="#39319E" transform="translate(85,274)"/>
<path d="M0 0 C6.435 2.97 6.435 2.97 13 6 C12.67 6.66 12.34 7.32 12 8 C10.36895675 7.6298555 8.74511976 7.22785648 7.125 6.8125 C5.76761719 6.48185547 5.76761719 6.48185547 4.3828125 6.14453125 C2 5 2 5 0 0 Z " fill="#28B2D4" transform="translate(195,48)"/>
<path d="M0 0 C-3.3 2.31 -6.6 4.62 -10 7 C-10.66 6.67 -11.32 6.34 -12 6 C-9.23086099 1.95279683 -5.23609869 -2.61804934 0 0 Z " fill="#1E1785" transform="translate(77,23)"/>
<path d="M0 0 C0 3.80345877 -1.13786331 4.77701015 -3.5 7.6875 C-4.47453125 8.89986328 -4.47453125 8.89986328 -5.46875 10.13671875 C-5.9740625 10.75160156 -6.479375 11.36648437 -7 12 C-7 8.79604584 -6.25664978 6.90600261 -5 4 C-4.34 4 -3.68 4 -3 4 C-3 3.34 -3 2.68 -3 2 C-2.01 1.34 -1.02 0.68 0 0 Z " fill="#191380" transform="translate(268,232)"/>
<path d="M0 0 C4 3 8 6 12 9 C3.68664414 7.83229593 3.68664414 7.83229593 0.9375 4.5 C0 2 0 2 0 0 Z " fill="#16117F" transform="translate(219,221)"/>
<path d="M0 0 C2.67901932 2.31881505 3.66204403 4.31814468 4.6875 7.6875 C4.93886719 8.49574219 5.19023437 9.30398437 5.44921875 10.13671875 C5.63097656 10.75160156 5.81273437 11.36648437 6 12 C3 11 3 11 1.3125 8.25 C0.06049331 5.14979295 -0.28970125 3.28328088 0 0 Z " fill="#1A1485" transform="translate(14,215)"/>
<path d="M0 0 C4.3424356 1.5725099 6.51999649 2.99384048 9 7 C8.75 9.3125 8.75 9.3125 8 11 C8 10.34 8 9.68 8 9 C7.34 9 6.68 9 6 9 C4.4921875 7.03125 4.4921875 7.03125 2.875 4.5 C2.33617187 3.6646875 1.79734375 2.829375 1.2421875 1.96875 C0.83226562 1.3190625 0.42234375 0.669375 0 0 Z " fill="#241E8A" transform="translate(252,190)"/>
<path d="M0 0 C0.66 0.33 1.32 0.66 2 1 C-3.625 6.90625 -3.625 6.90625 -7.75 7.1875 C-8.86375 7.0946875 -8.86375 7.0946875 -10 7 C-7.20283196 3.70921407 -3.80471422 1.93694542 0 0 Z " fill="#1D1784" transform="translate(140,189)"/>
<path d="M0 0 C2.52631142 3.12781414 4.42373366 6.29577411 6 10 C5.67 10.99 5.34 11.98 5 13 C5 12.34 5 11.68 5 11 C4.34 11 3.68 11 3 11 C0.84694043 7.14243493 -0.39253254 4.44870215 0 0 Z " fill="#191387" transform="translate(277,87)"/>
<path d="M0 0 C-1.58962659 4.03520597 -3.28232318 8.01811282 -5 12 C-5.33 12 -5.66 12 -6 12 C-6.32644414 7.83783725 -6.40650982 5.63686538 -4.125 2.0625 C-2 0 -2 0 0 0 Z " fill="#1C1685" transform="translate(75,77)"/>
<path d="M0 0 C4.16138263 -0.08159574 7.9472484 0.01751476 12 1 C12 1.66 12 2.32 12 3 C12.99 3.33 13.98 3.66 15 4 C9.72684667 3.5547115 4.98229776 2.91626837 0 1 C0 0.67 0 0.34 0 0 Z " fill="#150C81" transform="translate(111,287)"/>
<path d="M0 0 C0.33 0.66 0.66 1.32 1 2 C0.36328125 3.875 0.36328125 3.875 -0.6875 6 C-1.18830078 7.051875 -1.18830078 7.051875 -1.69921875 8.125 C-3.21910635 10.31582897 -4.55687434 11.01246289 -7 12 C-5.44298069 7.32894208 -2.91552627 3.91294315 0 0 Z " fill="#161083" transform="translate(283,231)"/>
<path d="M0 0 C0.66 0.33 1.32 0.66 2 1 C1.01 1.33 0.02 1.66 -1 2 C-1.33 2.99 -1.66 3.98 -2 5 C-3.8125 6.25 -3.8125 6.25 -6 7 C-8.13671875 6.546875 -8.13671875 6.546875 -10 6 C-8.3811004 4.96951963 -6.75467511 3.95085322 -5.125 2.9375 C-4.22007812 2.36902344 -3.31515625 1.80054688 -2.3828125 1.21484375 C-1.20332031 0.61349609 -1.20332031 0.61349609 0 0 Z " fill="#151081" transform="translate(154,181)"/>
<path d="M0 0 C-1.6188996 1.03048037 -3.24532489 2.04914678 -4.875 3.0625 C-5.77992188 3.63097656 -6.68484375 4.19945312 -7.6171875 4.78515625 C-8.40351563 5.18605469 -9.18984375 5.58695313 -10 6 C-10.66 5.67 -11.32 5.34 -12 5 C-9.90360036 1.85540054 -9.3559026 1.45911196 -6 0.25 C-5.29875 -0.01296875 -4.5975 -0.2759375 -3.875 -0.546875 C-2 -1 -2 -1 0 0 Z " fill="#1A1283" transform="translate(152,170)"/>
<path d="M0 0 C0.33 0 0.66 0 1 0 C1.3690205 11.52164009 1.3690205 11.52164009 -1 17 C-1.33 17 -1.66 17 -2 17 C-1.85848172 14.9163691 -1.71162064 12.83310062 -1.5625 10.75 C-1.48128906 9.58984375 -1.40007812 8.4296875 -1.31640625 7.234375 C-1.06752213 4.69022624 -0.71885058 2.44046752 0 0 Z " fill="#130B82" transform="translate(89,126)"/>
<path d="M0 0 C3 1 3 1 4.6875 3.1875 C6.17161628 6.36774916 6.24194353 8.53214273 6 12 C3.25207517 8.59780735 0 4.51535412 0 0 Z " fill="#1B1588" transform="translate(286,79)"/>
<path d="M0 0 C3.94139078 1.66751148 6.7892812 4.22710649 10 7 C9.67 7.66 9.34 8.32 9 9 C7.68103535 8.07161713 6.37001311 7.13194268 5.0625 6.1875 C4.33160156 5.66542969 3.60070312 5.14335938 2.84765625 4.60546875 C1 3 1 3 0 0 Z " fill="#110E7E" transform="translate(242,46)"/>
<path d="M0 0 C-1.05339554 3.27723056 -2.63763259 4.60460094 -5.5 6.3125 C-6.655 6.869375 -7.81 7.42625 -9 8 C-9.66 7.67 -10.32 7.34 -11 7 C-9.54634731 5.82750647 -8.08692581 4.66216184 -6.625 3.5 C-5.40683594 2.52546875 -5.40683594 2.52546875 -4.1640625 1.53125 C-2 0 -2 0 0 0 Z " fill="#1A1584" transform="translate(251,271)"/>
<path d="M0 0 C0 0.66 0 1.32 0 2 C-5.05002222 3.03590199 -9.87416389 3.10251672 -15 3 C-15 2.67 -15 2.34 -15 2 C-9.77487721 0.53329887 -5.4185766 -0.22577402 0 0 Z " fill="#2E2793" transform="translate(80,238)"/>
<path d="M0 0 C3.81684226 1.55500981 6.19195732 4.03595495 9 7 C8.01 7.33 7.02 7.66 6 8 C3.17315616 6.18274325 1.34689075 4.96062054 0.1875 1.75 C0.125625 1.1725 0.06375 0.595 0 0 Z " fill="#342E9B" transform="translate(209,172)"/>
<path d="M0 0 C2.86724686 0.57344937 3.8614515 0.8614515 6 3 C6.6328125 5.1640625 6.6328125 5.1640625 7.125 7.625 C7.29257813 8.44226563 7.46015625 9.25953125 7.6328125 10.1015625 C7.81457031 11.04128906 7.81457031 11.04128906 8 12 C5.00027651 8.21087559 2.52489191 4.11168168 0 0 Z " fill="#17107E" transform="translate(111,75)"/>
<path d="M0 0 C6.16456476 0.37742233 9.17375515 2.15870308 14 6 C12.1171875 6.61328125 12.1171875 6.61328125 10 7 C8.64426252 5.68945377 7.31387169 4.35251497 6 3 C2.86649283 1.73215876 2.86649283 1.73215876 0 1 C0 0.67 0 0.34 0 0 Z " fill="#362F9B" transform="translate(99,68)"/>
<path d="M0 0 C0.66 0 1.32 0 2 0 C2 0.66 2 1.32 2 2 C2.99 2.33 3.98 2.66 5 3 C6.39712274 4.95597184 7.73779907 6.95436401 9 9 C6 9 6 9 4 8 C2.9296875 6.15234375 2.9296875 6.15234375 1.875 3.9375 C1.52179687 3.20402344 1.16859375 2.47054687 0.8046875 1.71484375 C0.53914063 1.14894531 0.27359375 0.58304688 0 0 Z " fill="#2A2191" transform="translate(45,224)"/>
<path d="M0 0 C0.33 0.66 0.66 1.32 1 2 C-0.98 4.97 -2.96 7.94 -5 11 C-5 7.5551941 -4.28787023 5.18578426 -3 2 C-2.01 1.34 -1.02 0.68 0 0 Z " fill="#1D1888" transform="translate(277,218)"/>
<path d="M0 0 C0.93045933 2.55144824 1.08564091 3.74006478 0.22265625 6.359375 C-0.16019531 7.14828125 -0.54304687 7.9371875 -0.9375 8.75 C-1.50791016 9.94882813 -1.50791016 9.94882813 -2.08984375 11.171875 C-2.39019531 11.77515625 -2.69054687 12.3784375 -3 13 C-4.15019009 9.54942972 -3.80497206 8.69840756 -2.625 5.375 C-2.34914063 4.57835938 -2.07328125 3.78171875 -1.7890625 2.9609375 C-1 1 -1 1 0 0 Z " fill="#191185" transform="translate(16,84)"/>
<path d="M0 0 C4.10958767 1.45044271 7.43258745 3.51110752 11 6 C9.375 6.75 9.375 6.75 7 7 C1.288 3.864 1.288 3.864 0 0 Z " fill="#100D7C" transform="translate(223,33)"/>
<path d="M0 0 C5.05255964 0.63156995 9.29593201 2.13459373 14 4 C9.47907032 5.45606519 6.48351204 4.27032841 2 3 C2 2.34 2 1.68 2 1 C1.34 0.67 0.68 0.34 0 0 Z " fill="#0D0978" transform="translate(96,294)"/>
<path d="M0 0 C0.66 0.33 1.32 0.66 2 1 C-0.44580676 4.66871014 -3.12424268 6.06212134 -7 8 C-7 6.68 -7 5.36 -7 4 C-1.7265625 0.77734375 -1.7265625 0.77734375 0 0 Z " fill="#251F8B" transform="translate(237,280)"/>
<path d="M0 0 C4.31392226 0.4793247 6.16569547 1.7457985 9 5 C8.67 5.99 8.34 6.98 8 8 C7.67 7.01 7.34 6.02 7 5 C4.98491642 4.26676204 4.98491642 4.26676204 3 4 C3 3.34 3 2.68 3 2 C2.01 1.67 1.02 1.34 0 1 C0 0.67 0 0.34 0 0 Z " fill="#2C2897" transform="translate(142,144)"/>
<path d="M0 0 C0.33 0.66 0.66 1.32 1 2 C-1.51830747 5.12270126 -2.7261549 5.94523098 -6.75 6.75 C-8.35875 6.87375 -8.35875 6.87375 -10 7 C-6.76478258 4.51137122 -3.40739705 2.24578442 0 0 Z " fill="#3B3399" transform="translate(107,192)"/>
<path d="M0 0 C3.81684226 1.55500981 6.19195732 4.03595495 9 7 C6.75 6.875 6.75 6.875 4 6 C1.6875 2.9375 1.6875 2.9375 0 0 Z " fill="#1E1983" transform="translate(115,121)"/>
<path d="M0 0 C0.33 0 0.66 0 1 0 C0.67 2.31 0.34 4.62 0 7 C-0.99 7.33 -1.98 7.66 -3 8 C-3.33 8.66 -3.66 9.32 -4 10 C-3.4359146 6.05140217 -2.2568294 3.29120954 0 0 Z " fill="#1E1790" transform="translate(28,89)"/>
<path d="M0 0 C6.4 0.49230769 6.4 0.49230769 9.4375 3.0625 C10.2109375 4.0215625 10.2109375 4.0215625 11 5 C10.67 5.66 10.34 6.32 10 7 C9.46375 6.566875 8.9275 6.13375 8.375 5.6875 C5.70884115 3.79312397 2.94773168 2.40687194 0 1 C0 0.67 0 0.34 0 0 Z " fill="#2B2597" transform="translate(213,29)"/>
<path d="M0 0 C0.33 0.66 0.66 1.32 1 2 C0.00390625 4.1640625 0.00390625 4.1640625 -1.4375 6.625 C-1.91058594 7.44226563 -2.38367188 8.25953125 -2.87109375 9.1015625 C-3.24363281 9.72804687 -3.61617188 10.35453125 -4 11 C-5 8 -5 8 -3.6875 4.375 C-2 1 -2 1 0 0 Z " fill="#342B9B" transform="translate(288,225)"/>
<path d="M0 0 C-1.24176695 0.70226141 -2.49385599 1.38629109 -3.75 2.0625 C-4.79414063 2.63677734 -4.79414063 2.63677734 -5.859375 3.22265625 C-8.36140628 4.1312406 -9.5332355 3.88336837 -12 3 C-8.57420105 -0.03051446 -4.40909835 -2.20454917 0 0 Z " fill="#43C5E8" transform="translate(187,111)"/>
<path d="M0 0 C1.65 1.32 3.3 2.64 5 4 C4.67 5.32 4.34 6.64 4 8 C2.35 6.02 0.7 4.04 -1 2 C-0.67 1.34 -0.34 0.68 0 0 Z " fill="#3E3997" transform="translate(265,48)"/>
<path d="M0 0 C0.33 0.66 0.66 1.32 1 2 C1.66 2 2.32 2 3 2 C3.66 4.31 4.32 6.62 5 9 C2 8 2 8 0.8125 6.1875 C0 4 0 4 0 0 Z " fill="#2E2595" transform="translate(9,205)"/>
<path d="M0 0 C0.53625 0.268125 1.0725 0.53625 1.625 0.8125 C0.635 1.4725 -0.355 2.1325 -1.375 2.8125 C-2.035 3.369375 -2.695 3.92625 -3.375 4.5 C-4.035 4.933125 -4.695 5.36625 -5.375 5.8125 C-6.365 5.4825 -7.355 5.1525 -8.375 4.8125 C-2.95961538 -0.23365385 -2.95961538 -0.23365385 0 0 Z " fill="#2A2290" transform="translate(161.375,178.1875)"/>
<path d="M0 0 C-1.43429001 0.67354499 -2.87257057 1.33859701 -4.3125 2 C-5.51326172 2.556875 -5.51326172 2.556875 -6.73828125 3.125 C-9 4 -9 4 -12 4 C-10.39473164 1.38087794 -9.52483536 0.17494512 -6.5625 -0.8125 C-4.04997464 -0.99634332 -2.39646117 -0.66653166 0 0 Z " fill="#100D7A" transform="translate(176,138)"/>
<path d="M0 0 C0.66 0.33 1.32 0.66 2 1 C-3.14285714 6.57142857 -3.14285714 6.57142857 -7 7 C-4.66666667 4.66666667 -2.33333333 2.33333333 0 0 Z " fill="#181284" transform="translate(70,40)"/>
<path d="M0 0 C-5.14285714 4.42857143 -5.14285714 4.42857143 -9 5 C-6.81610567 0.16423399 -5.20641855 -0.13701101 0 0 Z " fill="#1C1386" transform="translate(88,16)"/>
<path d="M0 0 C4.55737263 0.43820891 7.57653445 0.85041169 11 4 C8 5 8 5 5 4 C5 3.34 5 2.68 5 2 C3.35 1.67 1.7 1.34 0 1 C0 0.67 0 0.34 0 0 Z " fill="#322D9D" transform="translate(198,8)"/>
<path d="M0 0 C0 3 0 3 -1.3125 4.38671875 C-2.875 5.59114583 -4.4375 6.79557292 -6 8 C-5.49396008 5.83125748 -5.00016187 4.00032373 -4 2 C-1.9375 0.875 -1.9375 0.875 0 0 Z " fill="#221B84" transform="translate(257,246)"/>
<path d="M0 0 C2.64 1.98 5.28 3.96 8 6 C7.67 6.99 7.34 7.98 7 9 C5.82737096 7.88121617 4.66204862 6.75476949 3.5 5.625 C2.8503125 4.99851563 2.200625 4.37203125 1.53125 3.7265625 C0 2 0 2 0 0 Z " fill="#150F7D" transform="translate(43,240)"/>
<path d="M0 0 C-2.35968744 2.09749995 -3.54616994 2.96905704 -6.75 3.1875 C-7.86375 3.0946875 -7.86375 3.0946875 -9 3 C-5.83583464 -0.30799106 -4.50236011 -1.35070803 0 0 Z " fill="#25208D" transform="translate(118,205)"/>
<path d="M0 0 C4.83256305 0.41421969 6.82679218 2.46413986 10 6 C6.5625 5.1875 6.5625 5.1875 3 4 C2.67 3.01 2.34 2.02 2 1 C1.34 0.67 0.68 0.34 0 0 Z " fill="#39339E" transform="translate(247,186)"/>
<path d="M0 0 C0 0.66 0 1.32 0 2 C-3.41831915 4.5393228 -5.75776898 5.3636198 -10 5 C-3.63636364 0 -3.63636364 0 0 0 Z " fill="#0999BF" transform="translate(237,86)"/>
<path d="M0 0 C2.625 0.9375 2.625 0.9375 5 2 C5 2.66 5 3.32 5 4 C5.66 4.33 6.32 4.66 7 5 C3.17902761 4.46930939 0.93828597 3.50298434 -2 1 C-1.34 0.67 -0.68 0.34 0 0 Z " fill="#271F8F" transform="translate(91,291)"/>
<path d="M0 0 C2.375 0.1875 2.375 0.1875 5 1 C6.3125 3.5625 6.3125 3.5625 7 6 C3.63279613 4.60667426 2.0140476 3.0210714 0 0 Z " fill="#1B1687" transform="translate(216,180)"/>
<path d="M0 0 C0 4.24645065 -1.81750806 6.38524772 -4 10 C-4.33 9.34 -4.66 8.68 -5 8 C-2.51612903 1.25806452 -2.51612903 1.25806452 0 0 Z " fill="#150C7F" transform="translate(24,72)"/>
<path d="M0 0 C2.0625 1.75 2.0625 1.75 4 4 C3.75 6.25 3.75 6.25 3 8 C0.37613513 4.93882432 0 4.26826873 0 0 Z " fill="#201B8D" transform="translate(21,229)"/>
<path d="M0 0 C0.7425 0.0825 1.485 0.165 2.25 0.25 C0.27579865 2.77259061 -0.71745642 3.2429808 -3.9375 3.9375 C-5.3296875 4.0921875 -5.3296875 4.0921875 -6.75 4.25 C-3.42692308 0.31153846 -3.42692308 0.31153846 0 0 Z " fill="#312A93" transform="translate(123.75,183.75)"/>
<path d="M0 0 C3.78383679 0.92493788 5.56693694 1.39371171 7.875 4.625 C8.431875 5.800625 8.431875 5.800625 9 7 C5.18315774 5.44499019 2.80804268 2.96404505 0 0 Z " fill="#0F0A79" transform="translate(125,113)"/>
<path d="M0 0 C0.33 0.66 0.66 1.32 1 2 C1.66 2 2.32 2 3 2 C4.625 4 4.625 4 6 6 C5.67 6.66 5.34 7.32 5 8 C2.5 5.6875 2.5 5.6875 0 3 C0 2.01 0 1.02 0 0 Z " fill="#211A8F" transform="translate(69,104)"/>
<path d="M0 0 C0 3 0 3 -2.5 5.6875 C-3.325 6.450625 -4.15 7.21375 -5 8 C-4.64950425 4.75791433 -4.43778819 3.38472296 -1.9375 1.1875 C-1.298125 0.795625 -0.65875 0.40375 0 0 Z " fill="#150E7D" transform="translate(35,57)"/>
<path d="M0 0 C4.21912747 0.4794463 6.79663178 1.16625119 10 4 C3.47692308 3.38461538 3.47692308 3.38461538 1.0625 1.4375 C0.711875 0.963125 0.36125 0.48875 0 0 Z " fill="#0B0678" transform="translate(199,22)"/>
</svg>
